<?xml version="1.0" encoding="UTF-8" standalone="no"?>
<!-- Created with Inkscape (http://www.inkscape.org/) -->

<svg
   xmlns:dc="http://purl.org/dc/elements/1.1/"
   xmlns:cc="http://creativecommons.org/ns#"
   xmlns:rdf="http://www.w3.org/1999/02/22-rdf-syntax-ns#"
   xmlns:svg="http://www.w3.org/2000/svg"
   xmlns="http://www.w3.org/2000/svg"
   xmlns:sodipodi="http://sodipodi.sourceforge.net/DTD/sodipodi-0.dtd"
   xmlns:inkscape="http://www.inkscape.org/namespaces/inkscape"
   width="562"
   height="562"
   viewBox="0 0 561.99999 561.99999"
   id="svg4931"
   version="1.1"
   inkscape:version="0.91 r13725"
   sodipodi:docname="favicon.svg"
   inkscape:export-filename="/home/micz/Documents/github/Booktype-UI-snippets/V2.2/CorePortal/BooktypeOrange/lib/booktype/apps/core/static/core/img/favicon.png"
   inkscape:export-xdpi="5.1199999"
   inkscape:export-ydpi="5.1199999">
  <defs
     id="defs4933" />
  <sodipodi:namedview
     id="base"
     pagecolor="#ffffff"
     bordercolor="#666666"
     borderopacity="1.0"
     inkscape:pageopacity="0.0"
     inkscape:pageshadow="2"
     inkscape:zoom="1.289263"
     inkscape:cx="299.10617"
     inkscape:cy="290.62089"
     inkscape:document-units="px"
     inkscape:current-layer="layer1"
     showgrid="false"
     inkscape:window-width="1920"
     inkscape:window-height="1056"
     inkscape:window-x="0"
     inkscape:window-y="24"
     inkscape:window-maximized="1"
     fit-margin-top="0"
     fit-margin-left="0"
     fit-margin-right="0"
     fit-margin-bottom="0"
     units="px" />
  <metadata
     id="metadata4936">
    <rdf:RDF>
      <cc:Work
         rdf:about="">
        <dc:format>image/svg+xml</dc:format>
        <dc:type
           rdf:resource="http://purl.org/dc/dcmitype/StillImage" />
        <dc:title></dc:title>
      </cc:Work>
    </rdf:RDF>
  </metadata>
  <g
     inkscape:label="Layer 1"
     inkscape:groupmode="layer"
     id="layer1"
     transform="translate(-58.079621,-402.32667)">
    <g
       style="font-style:normal;font-weight:normal;font-size:626.06640625px;line-height:125%;font-family:sans-serif;letter-spacing:0px;word-spacing:0px;fill:#000000;fill-opacity:1;stroke:none;stroke-width:1px;stroke-linecap:butt;stroke-linejoin:miter;stroke-opacity:1"
       id="text5479"
       transform="translate(0.2426407,-42.426407)">
      <path
         d="m 58.079621,964.32666 0,-456.08938 167.785799,0 q 47.26801,0 80.44953,8.76493 33.18152,8.76493 54.15475,24.72963 20.97322,15.96469 30.36422,38.81611 9.70403,22.85143 9.70403,51.02442 0,15.33862 -4.38247,29.73815 -4.38246,14.08649 -13.77346,26.60782 -9.391,12.52133 -24.10356,22.85143 -14.71256,10.01706 -35.37275,17.52985 45.07678,10.95617 66.67607,35.68579 21.59929,24.41659 21.59929,62.91967 0,29.11209 -11.26919,54.15475 -11.2692,25.04265 -33.18152,43.82465 -21.59929,18.46896 -53.52868,29.11208 -31.92939,10.3301 -72.93673,10.3301 l -182.185329,0 z m 105.805219,-193.45452 0,113.63105 74.50191,0 q 20.97322,0 34.12062,-5.32156 13.46042,-5.32157 20.97322,-13.77346 7.5128,-8.4519 10.3301,-19.09503 2.81729,-10.64313 2.81729,-21.59929 0,-12.52133 -3.44336,-22.53839 -3.13033,-10.01706 -11.2692,-16.90379 -7.82583,-6.88673 -20.97322,-10.64313 -13.1474,-3.7564 -33.18152,-3.7564 l -73.87584,0 z m 0,-70.7455 55.09385,0 q 17.52986,0 31.61635,-2.50427 14.0865,-2.50426 23.79052,-8.76493 10.01707,-6.26066 15.0256,-17.21682 5.32156,-10.95617 5.32156,-27.54693 0,-16.27772 -4.06943,-26.92085 -4.06943,-10.95616 -12.52133,-17.52986 -8.45189,-6.5737 -21.59929,-9.391 -12.83436,-2.8173 -30.67725,-2.8173 l -61.98058,0 0,112.69196 z"
         style="font-style:normal;font-variant:normal;font-weight:900;font-stretch:normal;font-family:Lato;-inkscape-font-specification:'Lato Heavy'"
         id="path5507"
         inkscape:connector-curvature="0" />
    </g>
    <g
       style="font-style:normal;font-weight:normal;font-size:626.06640625px;line-height:125%;font-family:sans-serif;letter-spacing:0px;word-spacing:0px;fill:#000000;fill-opacity:1;stroke:none;stroke-width:1px;stroke-linecap:butt;stroke-linejoin:miter;stroke-opacity:1"
       id="text5483"
       transform="translate(2.2426407,-42.426407)">
      <path
         d="m 619.52787,508.23728 0,83.8929 -128.34361,0 0,372.19648 -105.80523,0 0,-372.19648 -128.34361,0 0,-83.8929 362.49245,0 z"
         style="font-style:normal;font-variant:normal;font-weight:900;font-stretch:normal;font-family:Lato;-inkscape-font-specification:'Lato Heavy';fill:#ff6600"
         id="path5510"
         inkscape:connector-curvature="0" />
    </g>
  </g>
</svg>
