<?xml version="1.0" encoding="UTF-8" standalone="no"?>
<!-- Created with Inkscape (http://www.inkscape.org/) -->

<svg
   xmlns:dc="http://purl.org/dc/elements/1.1/"
   xmlns:cc="http://creativecommons.org/ns#"
   xmlns:rdf="http://www.w3.org/1999/02/22-rdf-syntax-ns#"
   xmlns:svg="http://www.w3.org/2000/svg"
   xmlns="http://www.w3.org/2000/svg"
   xmlns:sodipodi="http://sodipodi.sourceforge.net/DTD/sodipodi-0.dtd"
   xmlns:inkscape="http://www.inkscape.org/namespaces/inkscape"
   width="120"
   height="920"
   viewBox="0 0 120 920.00001"
   id="svg2"
   version="1.1"
   inkscape:version="0.91 r13725"
   sodipodi:docname="side-tab-icons.svg"
   inkscape:export-filename="/home/micz/Documents/github/Booktype-UI-snippets/V2.2/CorePortal/BooktypeOrange/lib/booktype/apps/core/static/core/img/side-tab-icons.png"
   inkscape:export-xdpi="90"
   inkscape:export-ydpi="90">
  <defs
     id="defs4" />
  <sodipodi:namedview
     id="base"
     pagecolor="#ffffff"
     bordercolor="#666666"
     borderopacity="1.0"
     inkscape:pageopacity="0.0"
     inkscape:pageshadow="2"
     inkscape:zoom="4.7610633"
     inkscape:cx="98.623269"
     inkscape:cy="411.78316"
     inkscape:document-units="px"
     inkscape:current-layer="layer1"
     showgrid="false"
     inkscape:window-width="2560"
     inkscape:window-height="1416"
     inkscape:window-x="0"
     inkscape:window-y="24"
     inkscape:window-maximized="1"
     fit-margin-top="0"
     fit-margin-left="0"
     fit-margin-right="0"
     fit-margin-bottom="0"
     showguides="true"
     inkscape:guide-bbox="true"
     units="px">
    <sodipodi:guide
       position="0.084091919,720.76547"
       orientation="0,1"
       id="guide4230" />
    <sodipodi:guide
       position="-4.7704168,682.43213"
       orientation="0,1"
       id="guide4223" />
    <sodipodi:guide
       position="0.084091919,120.76546"
       orientation="0,1"
       id="guide4225" />
    <sodipodi:guide
       position="-9.1394746,161.05787"
       orientation="0,1"
       id="guide4227" />
    <sodipodi:guide
       position="-17.392139,200.3794"
       orientation="0,1"
       id="guide4229" />
    <sodipodi:guide
       position="-7.683122,641.65426"
       orientation="0,1"
       id="guide4231" />
    <sodipodi:guide
       position="40.022941,730.56662"
       orientation="1,0"
       id="guide4233" />
    <sodipodi:guide
       position="80.216989,729.80102"
       orientation="1,0"
       id="guide4235" />
    <sodipodi:guide
       position="-13.993983,597.96368"
       orientation="0,1"
       id="guide4333" />
    <sodipodi:guide
       position="31.09093,560.73081"
       orientation="0,1"
       id="guide4425" />
    <sodipodi:guide
       position="40.022941,520.91956"
       orientation="0,1"
       id="guide4427" />
    <sodipodi:guide
       position="40.022941,480.98071"
       orientation="0,1"
       id="guide4429" />
    <sodipodi:guide
       position="40.022941,440.91426"
       orientation="0,1"
       id="guide4431" />
    <sodipodi:guide
       position="40.022941,400.97541"
       orientation="0,1"
       id="guide4433" />
    <sodipodi:guide
       position="40.022941,360.78135"
       orientation="0,1"
       id="guide4435" />
    <sodipodi:guide
       position="40.022941,321.0977"
       orientation="0,1"
       id="guide4437" />
    <sodipodi:guide
       position="40.022941,280.90365"
       orientation="0,1"
       id="guide4439" />
    <sodipodi:guide
       position="40.022941,240.9648"
       orientation="0,1"
       id="guide4441" />
    <sodipodi:guide
       position="0.084091919,120.76545"
       orientation="1,0"
       id="guide4443" />
    <sodipodi:guide
       position="120.08409,120.76545"
       orientation="1,0"
       id="guide4445" />
    <sodipodi:guide
       position="40.022941,80.699008"
       orientation="0,1"
       id="guide4447" />
    <sodipodi:guide
       position="56.610961,40.632558"
       orientation="0,1"
       id="guide4449" />
    <sodipodi:guide
       position="57.121362,-0.071892679"
       orientation="0,1"
       id="guide4451" />
    <sodipodi:guide
       position="20.111104,130.92"
       orientation="1,0"
       id="guide4967" />
    <sodipodi:guide
       position="59.883058,143.89524"
       orientation="1,0"
       id="guide4969" />
    <sodipodi:guide
       position="100.07812,138.25383"
       orientation="1,0"
       id="guide4971" />
    <sodipodi:guide
       position="59.883058,-39.877747"
       orientation="0,1"
       id="guide6031" />
    <sodipodi:guide
       position="-104.69081,-80.827464"
       orientation="0,1"
       id="guide7420" />
    <sodipodi:guide
       position="-65.944946,-120.59971"
       orientation="0,1"
       id="guide7422" />
    <sodipodi:guide
       position="-42.59479,-160.88514"
       orientation="0,1"
       id="guide7424" />
    <sodipodi:guide
       position="147.44606,760.12433"
       orientation="0,1"
       id="guide7561" />
    <sodipodi:guide
       position="110.68956,880.89568"
       orientation="0,1"
       id="guide7563" />
    <sodipodi:guide
       position="111.31967,840.77859"
       orientation="0,1"
       id="guide7565" />
    <sodipodi:guide
       position="114.05015,800.6615"
       orientation="0,1"
       id="guide7567" />
  </sodipodi:namedview>
  <metadata
     id="metadata7">
    <rdf:RDF>
      <cc:Work
         rdf:about="">
        <dc:format>image/svg+xml</dc:format>
        <dc:type
           rdf:resource="http://purl.org/dc/dcmitype/StillImage" />
        <dc:title></dc:title>
      </cc:Work>
    </rdf:RDF>
  </metadata>
  <g
     inkscape:label="Layer 1"
     inkscape:groupmode="layer"
     id="layer1"
     transform="translate(-139.91591,35.44381)">
    <path
       style="fill:#ff6600"
       inkscape:connector-curvature="0"
       d="m 249.9036,535.9075 c 0,-1.1254 -0.91056,-2.04619 -2.03596,-2.04619 l -16.36955,0 c -1.1254,0 -2.04619,0.92079 -2.04619,2.04619 l 0,12.27716 c 0,1.12541 0.92079,2.04619 2.04619,2.04619 l 14.32335,0 4.09239,4.09239 -0.0102,-18.41574 z"
       id="path4485-6" />
    <path
       style="fill:#ff6600"
       inkscape:connector-curvature="0"
       d="m 247.86765,93.424346 -16.36955,0 c -1.1254,0 -2.03596,0.9208 -2.03596,2.0462 l -0.0102,18.415744 4.09238,-4.09239 14.32336,0 c 1.1254,0 2.04619,-0.92079 2.04619,-2.04619 l 0,-12.277164 c 0,-1.1254 -0.92079,-2.0462 -2.04619,-2.0462 z m -14.32336,7.161684 12.27716,0 0,2.0462 -12.27716,0 0,-2.0462 z m 8.18478,5.11548 -8.18478,0 0,-2.04619 8.18478,0 0,2.04619 z m 4.09238,-6.138574 -12.27716,0 0,-2.0462 12.27716,0 0,2.0462 z"
       id="path4533-0" />
    <path
       style="fill:#ff6600"
       inkscape:connector-curvature="0"
       d="m 245.30989,254.50465 0,-1.0231 c 0,-0.5627 -0.46039,-1.02309 -1.0231,-1.02309 l -12.27716,0 c -0.56269,0 -1.02309,0.46039 -1.02309,1.02309 l 0,4.0924 c 0,0.56269 0.4604,1.02309 1.02309,1.02309 l 12.27716,0 c 0.56271,0 1.0231,-0.4604 1.0231,-1.02309 l 0,-1.02311 1.0231,0 0,4.09239 -10.23096,0 0,11.25407 c 0,0.5627 0.46039,1.02309 1.02309,1.02309 l 2.04619,0 c 0.56271,0 1.0231,-0.46039 1.0231,-1.02309 l 0,-9.20787 8.18478,0 0,-8.18478 -3.0693,0 z"
       id="path4597-6" />
    <path
       style="fill:#ff6600"
       inkscape:connector-curvature="0"
       d="m 241.38669,13.826376 c -5.64539,0 -10.22304,4.57765 -10.22304,10.22304 l -3.40768,0 4.41863,4.41863 0.0795,0.15902 4.58902,-4.57765 -3.40769,0 c 0,-4.39591 3.55535,-7.95126 7.95126,-7.95126 4.39591,0 7.95126,3.55535 7.95126,7.95126 0,4.39591 -3.55535,7.95126 -7.95126,7.95126 -2.19228,0 -4.18008,-0.89736 -5.61132,-2.33995 l -1.61296,1.61297 c 1.8515,1.85151 4.3959,2.99876 7.22428,2.99876 5.64539,0 10.22304,-4.57764 10.22304,-10.22304 0,-5.64539 -4.57765,-10.22304 -10.22304,-10.22304 z m -1.13589,5.67947 0,5.67946 4.86162,2.88517 0.81784,-1.37442 -3.97562,-2.36267 0,-4.82754 -1.70384,0 z"
       id="path4647-6" />
    <path
       sodipodi:nodetypes="ccccccccccssssssssssssssccsssc"
       style="fill:#ff6600"
       inkscape:connector-curvature="0"
       d="m 248.89074,372.64515 0,19.12336 2.04619,0 0,-19.12336 z m -4.0924,19.12336 2.0462,0 0,-19.12336 -2.0462,0 z m -3.06928,-19.12336 -12.27716,0 c -0.56271,0 -1.0231,0.4604 -1.0231,1.0231 l 0,17.07716 c 0,0.5627 0.46039,1.0231 1.0231,1.0231 l 12.27716,0 c 0.5627,0 1.02309,-0.4604 1.02309,-1.0231 l 0,-17.07716 c 0,-0.5627 -0.46039,-1.0231 -1.02309,-1.0231 z m -6.13858,7.61352 c 1.26864,0 2.30197,1.03333 2.30197,2.30197 0,1.26864 -1.03333,2.30197 -2.30197,2.30197 -1.26864,0 -2.30197,-1.03333 -2.30197,-2.30197 0,-1.26864 1.03333,-2.30197 2.30197,-2.30197 z m 4.60393,9.46364 -9.20787,0 0,-0.76732 c 0,-1.53464 3.06929,-2.30197 4.60394,-2.30197 1.53464,0 4.60393,0.76733 4.60393,2.30197 z"
       id="path4663-7" />
    <path
       style="fill:#ff6600"
       inkscape:connector-curvature="0"
       d="m 244.78016,61.291566 c 2.11538,0 3.81024,-1.70759 3.81024,-3.82298 0,-2.11537 -1.69485,-3.82297 -3.81024,-3.82297 -2.11538,0 -3.82298,1.7076 -3.82298,3.82297 0,2.11539 1.7076,3.82298 3.82298,3.82298 z m -10.1946,0 c 2.11538,0 3.81023,-1.70759 3.81023,-3.82298 0,-2.11537 -1.69485,-3.82297 -3.81023,-3.82297 -2.11538,0 -3.82298,1.7076 -3.82298,3.82297 0,2.11539 1.7076,3.82298 3.82298,3.82298 z m 0,2.54867 c -2.96918,0 -8.92029,1.49096 -8.92029,4.46014 l 0,3.18581 17.84056,0 0,-3.18581 c 0,-2.96918 -5.95109,-4.46014 -8.92027,-4.46014 z m 10.1946,0 c -0.36955,0 -0.79008,0.0254 -1.23609,0.0637 1.47822,1.07043 2.51042,2.51042 2.51042,4.39641 l 0,3.18583 7.64596,0 0,-3.18583 c 0,-2.96917 -5.95111,-4.46012 -8.92029,-4.46012 z"
       id="path4679-9" />
    <path
       style="fill:#ff6600"
       inkscape:connector-curvature="0"
       d="m 248.3753,464.15401 c 0.041,-0.32739 0.0716,-0.65477 0.0716,-1.00263 0,-0.34786 -0.0307,-0.67525 -0.0716,-1.00263 l 2.15873,-1.68811 c 0.19439,-0.15347 0.24555,-0.42971 0.12277,-0.65479 l -2.04619,-3.53991 c -0.12277,-0.22508 -0.39901,-0.30693 -0.62409,-0.22508 l -2.54751,1.0231 c -0.53201,-0.40924 -1.10494,-0.74687 -1.72903,-1.00264 l -0.38878,-2.7112 c -0.0307,-0.24555 -0.24554,-0.42971 -0.50132,-0.42971 l -4.09238,0 c -0.25578,0 -0.47063,0.18416 -0.50132,0.42971 l -0.38878,2.7112 c -0.62408,0.25577 -1.19702,0.60363 -1.72903,1.00264 l -2.54751,-1.0231 c -0.23531,-0.0921 -0.50132,0 -0.62409,0.22508 l -2.04619,3.53991 c -0.13301,0.22508 -0.0716,0.50132 0.12277,0.65479 l 2.15873,1.68811 c -0.041,0.32738 -0.0716,0.66501 -0.0716,1.00263 0,0.33762 0.0307,0.67524 0.0716,1.00263 l -2.15873,1.68811 c -0.19439,0.15347 -0.24555,0.42971 -0.12277,0.65479 l 2.04619,3.53991 c 0.12277,0.22508 0.39901,0.30693 0.62409,0.22508 l 2.54751,-1.0231 c 0.53201,0.40924 1.10494,0.74687 1.72903,1.00264 l 0.38878,2.7112 c 0.0307,0.24555 0.24554,0.42971 0.50132,0.42971 l 4.09238,0 c 0.25578,0 0.47063,-0.18416 0.50132,-0.42971 l 0.38878,-2.7112 c 0.62409,-0.25577 1.19702,-0.60363 1.72903,-1.00264 l 2.54751,1.0231 c 0.23531,0.0921 0.50132,0 0.62409,-0.22508 l 2.04619,-3.53991 c 0.12278,-0.22508 0.0716,-0.50132 -0.12277,-0.65479 l -2.15873,-1.68811 z m -7.60161,2.57821 c -1.97457,0 -3.58084,-1.60627 -3.58084,-3.58084 0,-1.97458 1.60627,-3.58084 3.58084,-3.58084 1.97458,0 3.58084,1.60626 3.58084,3.58084 0,1.97457 -1.60626,3.58084 -3.58084,3.58084 z"
       id="path4695-2" />
    <path
       style="fill:#ff6600"
       inkscape:connector-curvature="0"
       d="m 239.67263,411.74725 c -5.64749,0 -10.22073,4.58347 -10.22073,10.23097 0,5.64749 4.57324,10.23096 10.22073,10.23096 5.65773,0 10.2412,-4.58347 10.2412,-10.23096 0,-5.6475 -4.58347,-10.23097 -10.2412,-10.23097 z m 0.0102,18.41574 c -4.52208,0 -8.18477,-3.66269 -8.18477,-8.18477 0,-4.52209 3.66268,-8.18478 8.18477,-8.18478 4.52209,0 8.18478,3.66269 8.18478,8.18478 0,4.52208 -3.66269,8.18477 -8.18478,8.18477 z"
       id="path4843-2" />
    <path
       style="fill:#ff6600"
       inkscape:connector-curvature="0"
       d="m 240.19441,416.86274 -1.53464,0 0,6.13857 5.37126,3.22275 0.76732,-1.2584 -4.60394,-2.73167 z"
       id="path4847-8" />
    <path
       style="fill:#ff6600"
       inkscape:connector-curvature="0"
       d="m 243.77525,177.45945 0,11.76562 c 0,2.26104 -1.83134,4.09238 -4.09239,4.09238 -2.26104,0 -4.09239,-1.83134 -4.09239,-4.09238 l 0,-12.78872 c 0,-1.41187 1.14588,-2.55773 2.55775,-2.55773 1.41187,0 2.55774,1.14586 2.55774,2.55773 l 0,10.74253 c 0,0.5627 -0.4604,1.02309 -1.0231,1.02309 -0.5627,0 -1.0231,-0.46039 -1.0231,-1.02309 l 0,-9.71943 -1.53464,0 0,9.71943 c 0,1.41187 1.14586,2.55773 2.55774,2.55773 1.41188,0 2.55774,-1.14586 2.55774,-2.55774 l 0,-10.74252 c 0,-2.26104 -1.83134,-4.09238 -4.09238,-4.09238 -2.26104,0 -4.09239,1.83134 -4.09239,4.09238 l 0,12.78872 c 0,3.11021 2.51683,5.62703 5.62703,5.62703 3.11021,0 5.62703,-2.51682 5.62703,-5.62703 l 0,-11.76562 -1.53464,0 z"
       id="path4862-7" />
    <path
       style="fill:#ff6600"
       inkscape:connector-curvature="0"
       d="m 246.84455,-25.514614 -14.33358,0 c -1.13564,0 -2.02574,0.91055 -2.02574,2.04619 l -0.0102,14.32335 c 0,1.12541 0.90033,2.0462002 2.03597,2.0462002 l 14.33358,0 c 1.1254,0 2.0462,-0.9207902 2.0462,-2.0462002 l 0,-14.32335 c 0,-1.13564 -0.9208,-2.04619 -2.0462,-2.04619 z m 0,12.27716 -4.09239,0 c 0,1.69834 -1.38118,3.06928 -3.06929,3.06928 -1.68811,0 -3.06929,-1.37094 -3.06929,-3.06928 l -4.10261,0 0,-10.23097 14.33358,0 0,10.23097 z"
       id="path5034-1" />
    <path
       style="fill:#ff6600"
       inkscape:connector-curvature="0"
       d="m 229.4519,336.69691 -2.0462,0 0,5.11548 0.0102,0 -0.0102,9.20788 c 0,1.1254 0.92079,2.04619 2.0462,2.04619 l 18.41574,0 0,-2.04619 -18.41574,0 0,-14.32336 z m 20.46193,-2.0462 -8.18477,0 -2.0462,-2.04619 -6.13858,0 c -1.1254,0 -2.03596,0.92079 -2.03596,2.04619 l -0.0102,12.27716 c 0,1.12541 0.92079,2.0462 2.04619,2.0462 l 16.36956,0 c 1.12541,0 2.0462,-0.92079 2.0462,-2.0462 l 0,-10.23096 c 0,-1.1254 -0.92079,-2.0462 -2.0462,-2.0462 z m -15.34644,11.25407 4.60392,-6.13858 3.58084,4.61416 2.55775,-3.07952 3.58084,4.60394 -14.32336,0 z"
       id="path5068-1" />
    <path
       style="fill:#ff6600"
       inkscape:connector-curvature="0"
       d="m 248.73851,212.61629 -16.36955,0 c -1.1254,0 -2.03596,0.92079 -2.03596,2.04619 l -0.0102,18.41574 4.09238,-4.09239 14.32336,0 c 1.1254,0 2.04619,-0.92078 2.04619,-2.04619 l 0,-12.27716 c 0,-1.1254 -0.92079,-2.0462 -2.04619,-2.0462 z m -7.16168,12.27716 -2.04619,0 0,-2.0462 2.04619,0 0,2.0462 z m 0,-4.09239 -2.04619,0 0,-4.09239 2.04619,0 0,4.09239 z"
       id="path5100-7" />
    <path
       style="fill:#ff6600"
       inkscape:connector-curvature="0"
       d="m 239.68286,491.28995 c -5.64749,0 -10.23096,4.58347 -10.23096,10.23096 0,5.6475 4.58347,10.23097 10.23096,10.23097 5.6475,0 10.23097,-4.58347 10.23097,-10.23097 0,-5.64749 -4.58347,-10.23096 -10.23097,-10.23096 z m -2.04619,15.34644 -5.11549,-5.11548 1.44257,-1.44257 3.67292,3.66269 7.76531,-7.7653 1.44256,1.4528 -9.20787,9.20786 z"
       id="path5182-5" />
    <path
       style="fill:#ff6600"
       inkscape:connector-curvature="0"
       d="m 231.26681,152.21557 16.85901,0 0,-3.3718 -16.85901,0 0,3.3718 z m 1.6859,-2.52885 1.6859,0 0,1.6859 -1.6859,0 0,-1.6859 z m -1.6859,-10.95836 0,3.37181 16.85901,0 0,-3.37181 -16.85901,0 z m 3.3718,2.52886 -1.6859,0 0,-1.68591 1.6859,0 0,1.68591 z m -3.3718,5.90065 16.85901,0 0,-3.3718 -16.85901,0 0,3.3718 z m 1.6859,-2.52885 1.6859,0 0,1.6859 -1.6859,0 0,-1.6859 z"
       id="path4503-7-5" />
    <path
       style="fill:#ff6600"
       inkscape:connector-curvature="0"
       d="m 231.23991,137.11419 16.859,0 0,-3.3718 -16.859,0 z m 1.6859,-2.52885 1.6859,0 0,1.6859 -1.6859,0 z"
       id="path4503-7-5-0"
       sodipodi:nodetypes="cccccccccc" />
    <path
       style="fill:#ff6600"
       inkscape:connector-curvature="0"
       d="m 229.46823,316.18616 20.46193,0 0,-4.09239 -20.46193,0 0,4.09239 z m 2.04619,-3.06929 2.04619,0 0,2.0462 -2.04619,0 0,-2.0462 z m -2.04619,-13.30026 0,4.09239 20.46193,0 0,-4.09239 -20.46193,0 z m 4.09238,3.0693 -2.04619,0 0,-2.0462 2.04619,0 0,2.0462 z m -4.09238,7.16167 20.46193,0 0,-4.09239 -20.46193,0 0,4.09239 z m 2.04619,-3.06929 2.04619,0 0,2.04619 -2.04619,0 0,-2.04619 z"
       id="path4503-7-5-6" />
    <path
       style="fill:#ff6600"
       inkscape:connector-curvature="0"
       d="m 229.43557,297.85747 20.46193,0 0,-4.09238 -20.46193,0 z m 2.04619,-3.06928 2.04619,0 0,2.04619 -2.04619,0 z"
       id="path4503-7-5-0-1"
       sodipodi:nodetypes="cccccccccc" />
    <path
       style="fill:#000000"
       inkscape:connector-curvature="0"
       d="m 169.89785,536.10931 c 0,-1.1254 -0.91056,-2.04619 -2.03596,-2.04619 l -16.36955,0 c -1.1254,0 -2.04619,0.92079 -2.04619,2.04619 l 0,12.27716 c 0,1.12541 0.92079,2.0462 2.04619,2.0462 l 14.32335,0 4.0924,4.09239 -0.0102,-18.41575 z"
       id="path4485-6-6" />
    <path
       style="fill:#000000"
       inkscape:connector-curvature="0"
       d="m 167.8619,93.626166 -16.36955,0 c -1.1254,0 -2.03596,0.92079 -2.03596,2.04619 l -0.0102,18.415754 4.09238,-4.09239 14.32336,0 c 1.1254,0 2.0462,-0.92079 2.0462,-2.0462 l 0,-12.277164 c 0,-1.1254 -0.9208,-2.04619 -2.0462,-2.04619 z m -14.32336,7.161684 12.27716,0 0,2.04619 -12.27716,0 0,-2.04619 z m 8.18478,5.11548 -8.18478,0 0,-2.04619 8.18478,0 0,2.04619 z m 4.09238,-6.138574 -12.27716,0 0,-2.0462 12.27716,0 0,2.0462 z"
       id="path4533-0-3" />
    <path
       style="fill:#000000"
       inkscape:connector-curvature="0"
       d="m 165.30414,254.50465 0,-1.0231 c 0,-0.5627 -0.46039,-1.0231 -1.02309,-1.0231 l -12.27716,0 c -0.5627,0 -1.0231,0.4604 -1.0231,1.0231 l 0,4.09239 c 0,0.5627 0.4604,1.0231 1.0231,1.0231 l 12.27716,0 c 0.5627,0 1.02309,-0.4604 1.02309,-1.0231 l 0,-1.0231 1.02311,0 0,4.09239 -10.23097,0 0,11.25406 c 0,0.56271 0.46039,1.0231 1.02309,1.0231 l 2.0462,0 c 0.5627,0 1.02309,-0.46039 1.02309,-1.0231 l 0,-9.20787 8.18478,0 0,-8.18477 -3.0693,0 z"
       id="path4597-6-2" />
    <path
       style="fill:#000000"
       inkscape:connector-curvature="0"
       d="m 161.38094,14.028186 c -5.64539,0 -10.22304,4.57765 -10.22304,10.22304 l -3.40768,0 4.41863,4.41864 0.0795,0.15902 4.58902,-4.57766 -3.40769,0 c 0,-4.3959 3.55535,-7.95125 7.95126,-7.95125 4.39591,0 7.95126,3.55535 7.95126,7.95125 0,4.39592 -3.55535,7.95127 -7.95126,7.95127 -2.19227,0 -4.18008,-0.89736 -5.61131,-2.33995 l -1.61297,1.61297 c 1.8515,1.85151 4.3959,2.99876 7.22428,2.99876 5.64539,0 10.22305,-4.57765 10.22305,-10.22305 0,-5.64539 -4.57766,-10.22304 -10.22305,-10.22304 z m -1.13589,5.67948 0,5.67946 4.86163,2.88517 0.81784,-1.37443 -3.97563,-2.36266 0,-4.82754 -1.70384,0 z"
       id="path4647-6-0" />
    <path
       sodipodi:nodetypes="ccccccccccssssssssssssssccsssc"
       style="fill:#000000"
       inkscape:connector-curvature="0"
       d="m 168.88499,372.84697 0,19.12336 2.04619,0 0,-19.12336 z m -4.09239,19.12336 2.0462,0 0,-19.12336 -2.0462,0 z m -3.06929,-19.12336 -12.27716,0 c -0.5627,0 -1.0231,0.4604 -1.0231,1.0231 l 0,17.07716 c 0,0.5627 0.4604,1.0231 1.0231,1.0231 l 12.27716,0 c 0.5627,0 1.0231,-0.4604 1.0231,-1.0231 l 0,-17.07716 c 0,-0.5627 -0.4604,-1.0231 -1.0231,-1.0231 z m -6.13858,7.61352 c 1.26864,0 2.30197,1.03333 2.30197,2.30197 0,1.26864 -1.03333,2.30197 -2.30197,2.30197 -1.26864,0 -2.30196,-1.03333 -2.30196,-2.30197 0,-1.26864 1.03332,-2.30197 2.30196,-2.30197 z m 4.60393,9.46364 -9.20786,0 0,-0.76732 c 0,-1.53465 3.06929,-2.30197 4.60393,-2.30197 1.53464,0 4.60393,0.76732 4.60393,2.30197 z"
       id="path4663-7-6" />
    <path
       style="fill:#000000"
       inkscape:connector-curvature="0"
       d="m 164.77441,61.493386 c 2.11539,0 3.81024,-1.70759 3.81024,-3.82298 0,-2.11537 -1.69484,-3.82297 -3.81024,-3.82297 -2.11537,0 -3.82297,1.7076 -3.82297,3.82297 0,2.11539 1.7076,3.82298 3.82297,3.82298 z m -10.1946,0 c 2.11539,0 3.81024,-1.70759 3.81024,-3.82298 0,-2.11537 -1.69485,-3.82297 -3.81024,-3.82297 -2.11538,0 -3.82298,1.7076 -3.82298,3.82297 0,2.11539 1.7076,3.82298 3.82298,3.82298 z m 0,2.54866 c -2.96918,0 -8.92028,1.49096 -8.92028,4.46015 l 0,3.18581 17.84056,0 0,-3.18581 c 0,-2.96919 -5.9511,-4.46015 -8.92028,-4.46015 z m 10.1946,0 c -0.36955,0 -0.79008,0.0254 -1.23608,0.0637 1.47821,1.07044 2.51041,2.51043 2.51041,4.39642 l 0,3.18583 7.64596,0 0,-3.18583 c 0,-2.96917 -5.9511,-4.46012 -8.92029,-4.46012 z"
       id="path4679-9-1" />
    <path
       style="fill:#000000"
       inkscape:connector-curvature="0"
       d="m 168.15184,464.15402 c 0.041,-0.32739 0.0716,-0.65478 0.0716,-1.00263 0,-0.34786 -0.0307,-0.67525 -0.0716,-1.00264 l 2.15874,-1.68811 c 0.19438,-0.15346 0.24554,-0.4297 0.12277,-0.65478 l -2.0462,-3.53991 c -0.12276,-0.22508 -0.399,-0.30693 -0.62408,-0.22508 l -2.54752,1.02309 c -0.532,-0.40924 -1.10494,-0.74686 -1.72903,-1.00264 l -0.38877,-2.7112 c -0.0307,-0.24554 -0.24555,-0.4297 -0.50132,-0.4297 l -4.09239,0 c -0.25577,0 -0.47062,0.18416 -0.50132,0.4297 l -0.38877,2.7112 c -0.62409,0.25578 -1.19703,0.60363 -1.72904,1.00264 l -2.54751,-1.02309 c -0.23531,-0.0921 -0.50132,0 -0.62409,0.22508 l -2.04619,3.53991 c -0.13301,0.22508 -0.0716,0.50132 0.12277,0.65478 l 2.15874,1.68811 c -0.041,0.32739 -0.0716,0.66501 -0.0716,1.00264 0,0.33762 0.0307,0.67524 0.0716,1.00263 l -2.15874,1.68811 c -0.19438,0.15346 -0.24554,0.4297 -0.12277,0.65478 l 2.04619,3.53992 c 0.12277,0.22508 0.39901,0.30692 0.62409,0.22508 l 2.54751,-1.0231 c 0.53201,0.40924 1.10495,0.74686 1.72904,1.00263 l 0.38877,2.71121 c 0.0307,0.24554 0.24555,0.4297 0.50132,0.4297 l 4.09239,0 c 0.25577,0 0.47062,-0.18416 0.50132,-0.4297 l 0.38877,-2.71121 c 0.62409,-0.25577 1.19703,-0.60362 1.72903,-1.00263 l 2.54752,1.0231 c 0.23531,0.0921 0.50132,0 0.62408,-0.22508 l 2.0462,-3.53992 c 0.12277,-0.22508 0.0716,-0.50132 -0.12277,-0.65478 l -2.15874,-1.68811 z m -7.60161,2.57821 c -1.97457,0 -3.58084,-1.60627 -3.58084,-3.58084 0,-1.97458 1.60627,-3.58084 3.58084,-3.58084 1.97458,0 3.58084,1.60626 3.58084,3.58084 0,1.97457 -1.60626,3.58084 -3.58084,3.58084 z"
       id="path4695-2-5" />
    <path
       style="fill:#000000"
       inkscape:connector-curvature="0"
       d="m 159.66689,411.94906 c -5.6475,0 -10.22074,4.58347 -10.22074,10.23097 0,5.64749 4.57324,10.23096 10.22074,10.23096 5.65772,0 10.2412,-4.58347 10.2412,-10.23096 0,-5.6475 -4.58348,-10.23097 -10.2412,-10.23097 z m 0.0102,18.41574 c -4.52209,0 -8.18478,-3.66269 -8.18478,-8.18477 0,-4.52209 3.66269,-8.18478 8.18478,-8.18478 4.52208,0 8.18477,3.66269 8.18477,8.18478 0,4.52208 -3.66269,8.18477 -8.18477,8.18477 z"
       id="path4843-2-4" />
    <path
       style="fill:#000000"
       inkscape:connector-curvature="0"
       d="m 160.18866,417.06455 -1.53464,0 0,6.13857 5.37126,3.22275 0.76732,-1.2584 -4.60394,-2.73167 z"
       id="path4847-8-7" />
    <path
       style="fill:#000000"
       inkscape:connector-curvature="0"
       d="m 163.7695,177.66127 0,11.76561 c 0,2.26104 -1.83134,4.09239 -4.09239,4.09239 -2.26104,0 -4.09238,-1.83135 -4.09238,-4.09239 l 0,-12.78871 c 0,-1.41187 1.14587,-2.55773 2.55774,-2.55773 1.41187,0 2.55774,1.14586 2.55774,2.55773 l 0,10.74252 c 0,0.56271 -0.4604,1.0231 -1.0231,1.0231 -0.5627,0 -1.0231,-0.46039 -1.0231,-1.0231 l 0,-9.71942 -1.53464,0 0,9.71942 c 0,1.41187 1.14587,2.55774 2.55774,2.55774 1.41188,0 2.55774,-1.14587 2.55774,-2.55774 l 0,-10.74252 c 0,-2.26104 -1.83134,-4.09238 -4.09238,-4.09238 -2.26104,0 -4.09238,1.83134 -4.09238,4.09238 l 0,12.78871 c 0,3.11022 2.51682,5.62704 5.62702,5.62704 3.11022,0 5.62703,-2.51682 5.62703,-5.62704 l 0,-11.76561 -1.53464,0 z"
       id="path4862-7-6" />
    <path
       style="fill:#000000"
       inkscape:connector-curvature="0"
       d="m 166.83881,-25.312794 -14.33359,0 c -1.13564,0 -2.02573,0.91055 -2.02573,2.04619 l -0.0102,14.32335 c 0,1.1254002 0.90032,2.0462002 2.03596,2.0462002 l 14.33359,0 c 1.1254,0 2.04619,-0.9208 2.04619,-2.0462002 l 0,-14.32335 c 0,-1.13564 -0.92079,-2.04619 -2.04619,-2.04619 z m 0,12.27715 -4.0924,0 c 0,1.69835 -1.38117,3.06929 -3.06928,3.06929 -1.68812,0 -3.06929,-1.37094 -3.06929,-3.06929 l -4.10262,0 0,-10.23096 14.33359,0 0,10.23096 z"
       id="path5034-1-5" />
    <path
       style="fill:#000000"
       inkscape:connector-curvature="0"
       d="m 149.44615,336.89872 -2.04619,0 0,5.11549 0.0102,0 -0.0102,9.20787 c 0,1.1254 0.92078,2.04619 2.04619,2.04619 l 18.41574,0 0,-2.04619 -18.41574,0 0,-14.32336 z m 20.46194,-2.04619 -8.18478,0 -2.04619,-2.04619 -6.13859,0 c -1.1254,0 -2.03596,0.92079 -2.03596,2.04619 l -0.0102,12.27716 c 0,1.12541 0.9208,2.04619 2.0462,2.04619 l 16.36956,0 c 1.1254,0 2.04619,-0.92078 2.04619,-2.04619 l 0,-10.23097 c 0,-1.1254 -0.92079,-2.04619 -2.04619,-2.04619 z m -15.34645,11.25406 4.60393,-6.13857 3.58084,4.61416 2.55774,-3.07952 3.58084,4.60393 -14.32335,0 z"
       id="path5068-1-6" />
    <path
       style="fill:#000000"
       inkscape:connector-curvature="0"
       d="m 168.73276,212.61628 -16.36955,0 c -1.1254,0 -2.03596,0.92079 -2.03596,2.04619 l -0.0102,18.41575 4.09238,-4.09239 14.32336,0 c 1.1254,0 2.0462,-0.92079 2.0462,-2.0462 l 0,-12.27716 c 0,-1.1254 -0.9208,-2.04619 -2.0462,-2.04619 z m -7.16168,12.27716 -2.04619,0 0,-2.04619 2.04619,0 0,2.04619 z m 0,-4.09238 -2.04619,0 0,-4.09239 2.04619,0 0,4.09239 z"
       id="path5100-7-9" />
    <path
       style="fill:#000000"
       inkscape:connector-curvature="0"
       d="m 159.67712,491.49176 c -5.6475,0 -10.23097,4.58347 -10.23097,10.23097 0,5.6475 4.58347,10.23097 10.23097,10.23097 5.64749,0 10.23097,-4.58347 10.23097,-10.23097 0,-5.6475 -4.58348,-10.23097 -10.23097,-10.23097 z m -2.04619,15.34645 -5.11549,-5.11548 1.44257,-1.44257 3.67292,3.66269 7.7653,-7.7653 1.44257,1.4528 -9.20787,9.20786 z"
       id="path5182-5-3" />
    <path
       style="fill:#000000"
       inkscape:connector-curvature="0"
       d="m 151.26107,152.41739 16.859,0 0,-3.3718 -16.859,0 0,3.3718 z m 1.68589,-2.52885 1.6859,0 0,1.6859 -1.6859,0 0,-1.6859 z m -1.68589,-10.95836 0,3.37181 16.859,0 0,-3.37181 -16.859,0 z m 3.37179,2.52886 -1.6859,0 0,-1.68591 1.6859,0 0,1.68591 z m -3.37179,5.90065 16.859,0 0,-3.3718 -16.859,0 0,3.3718 z m 1.68589,-2.52885 1.6859,0 0,1.6859 -1.6859,0 0,-1.6859 z"
       id="path4503-7-5-4" />
    <path
       style="fill:#000000"
       inkscape:connector-curvature="0"
       d="m 151.23416,137.31601 16.85901,0 0,-3.3718 -16.85901,0 z m 1.6859,-2.52885 1.6859,0 0,1.6859 -1.6859,0 z"
       id="path4503-7-5-0-5"
       sodipodi:nodetypes="cccccccccc" />
    <path
       style="fill:#000000"
       inkscape:connector-curvature="0"
       d="m 149.46248,316.38798 20.46194,0 0,-4.09239 -20.46194,0 0,4.09239 z m 2.04619,-3.06929 2.04619,0 0,2.0462 -2.04619,0 0,-2.0462 z m -2.04619,-13.30026 0,4.09239 20.46194,0 0,-4.09239 -20.46194,0 z m 4.09238,3.0693 -2.04619,0 0,-2.0462 2.04619,0 0,2.0462 z m -4.09238,7.16167 20.46194,0 0,-4.09239 -20.46194,0 0,4.09239 z m 2.04619,-3.06929 2.04619,0 0,2.04619 -2.04619,0 0,-2.04619 z"
       id="path4503-7-5-6-5" />
    <path
       style="fill:#000000"
       inkscape:connector-curvature="0"
       d="m 149.42982,298.05929 20.46194,0 0,-4.09238 -20.46194,0 z m 2.0462,-3.06928 2.04619,0 0,2.04619 -2.04619,0 z"
       id="path4503-7-5-0-1-4"
       sodipodi:nodetypes="cccccccccc" />
    <g
       id="g6011"
       transform="translate(0.45078559,-199.59563)">
      <path
         id="path4485-6-6-4"
         d="m 208.90514,734.9122 c 0,-1.1254 -0.91056,-2.04619 -2.03596,-2.04619 l -16.36955,0 c -1.1254,0 -2.04619,0.92079 -2.04619,2.04619 l 0,12.27716 c 0,1.12541 0.92079,2.04619 2.04619,2.04619 l 14.32335,0 4.09239,4.09239 -0.0102,-18.41574 z"
         inkscape:connector-curvature="0"
         style="fill:#000000" />
      <path
         id="path4485-6-6-4-4"
         d="m 209.917,735.42178 c 0,-1.1254 -0.91056,-2.04619 -2.03596,-2.04619 l -16.36955,0 c -1.1254,0 -2.04619,0.92079 -2.04619,2.04619 l 0,12.27716 c 0,1.12541 0.92079,2.0462 2.04619,2.0462 l 14.32335,0 4.09239,4.09239 -0.0102,-18.41575 z"
         inkscape:connector-curvature="0"
         style="fill:#ffffff" />
    </g>
    <g
       id="g5961"
       transform="translate(0.45078559,-198.54762)">
      <path
         id="path4533-0-3-4"
         d="m 206.86919,291.38105 -16.36955,0 c -1.1254,0 -2.03596,0.92079 -2.03596,2.04619 l -0.0102,18.41574 4.09238,-4.09239 14.32336,0 c 1.1254,0 2.04619,-0.92078 2.04619,-2.04619 l 0,-12.27716 c 0,-1.1254 -0.92079,-2.04619 -2.04619,-2.04619 z m -14.32336,7.16168 12.27716,0 0,2.04619 -12.27716,0 0,-2.04619 z m 8.18478,5.11548 -8.18478,0 0,-2.04619 8.18478,0 0,2.04619 z m 4.09238,-6.13858 -12.27716,0 0,-2.0462 12.27716,0 0,2.0462 z"
         inkscape:connector-curvature="0"
         style="fill:#000000" />
      <path
         id="path4533-0-3-4-9"
         d="m 207.88105,291.89063 -16.36955,0 c -1.1254,0 -2.03596,0.92079 -2.03596,2.04619 l -0.0102,18.41575 4.09238,-4.0924 14.32336,0 c 1.1254,0 2.04619,-0.92078 2.04619,-2.04619 l 0,-12.27716 c 0,-1.1254 -0.92079,-2.04619 -2.04619,-2.04619 z m -14.32336,7.16168 12.27716,0 0,2.04619 -12.27716,0 0,-2.04619 z m 8.18478,5.11548 -8.18478,0 0,-2.04619 8.18478,0 0,2.04619 z m 4.09238,-6.13857 -12.27716,0 0,-2.0462 12.27716,0 0,2.0462 z"
         inkscape:connector-curvature="0"
         style="fill:#ffffff" />
    </g>
    <g
       id="g5979"
       transform="translate(0.45078559,-196.91761)">
      <path
         id="path4597-6-2-3"
         d="m 204.31143,450.91267 0,-1.02309 c 0,-0.56271 -0.46039,-1.0231 -1.0231,-1.0231 l -12.27716,0 c -0.56269,0 -1.02309,0.46039 -1.02309,1.0231 l 0,4.09239 c 0,0.56269 0.4604,1.02309 1.02309,1.02309 l 12.27716,0 c 0.56271,0 1.0231,-0.4604 1.0231,-1.02309 l 0,-1.02311 1.0231,0 0,4.0924 -10.23096,0 0,11.25406 c 0,0.5627 0.46039,1.0231 1.02309,1.0231 l 2.04619,0 c 0.56271,0 1.0231,-0.4604 1.0231,-1.0231 l 0,-9.20787 8.18478,0 0,-8.18478 -3.0693,0 z"
         inkscape:connector-curvature="0"
         style="fill:#000000" />
      <path
         id="path4597-6-2-3-5"
         d="m 205.32329,451.42226 0,-1.0231 c 0,-0.56271 -0.46039,-1.0231 -1.0231,-1.0231 l -12.27716,0 c -0.56269,0 -1.02309,0.46039 -1.02309,1.0231 l 0,4.09239 c 0,0.5627 0.4604,1.0231 1.02309,1.0231 l 12.27716,0 c 0.56271,0 1.0231,-0.4604 1.0231,-1.0231 l 0,-1.0231 1.0231,0 0,4.09239 -10.23096,0 0,11.25406 c 0,0.56271 0.46039,1.0231 1.02309,1.0231 l 2.04619,0 c 0.56271,0 1.0231,-0.46039 1.0231,-1.0231 l 0,-9.20787 8.18478,0 0,-8.18477 -3.0693,0 z"
         inkscape:connector-curvature="0"
         style="fill:#ffffff" />
    </g>
    <g
       id="g5953"
       transform="translate(0.45078559,-197.59563)">
      <path
         id="path4647-6-0-0"
         d="m 200.38823,210.83108 c -5.64539,0 -10.22304,4.57765 -10.22304,10.22304 l -3.40768,0 4.41863,4.41863 0.0795,0.15903 4.58902,-4.57766 -3.40769,0 c 0,-4.3959 3.55535,-7.95126 7.95126,-7.95126 4.39591,0 7.95126,3.55536 7.95126,7.95126 0,4.39591 -3.55535,7.95126 -7.95126,7.95126 -2.19228,0 -4.18009,-0.89736 -5.61132,-2.33995 l -1.61296,1.61298 c 1.8515,1.8515 4.3959,2.99876 7.22428,2.99876 5.64539,0 10.22304,-4.57765 10.22304,-10.22305 0,-5.64539 -4.57765,-10.22304 -10.22304,-10.22304 z m -1.13589,5.67947 0,5.67947 4.86162,2.88516 0.81784,-1.37442 -3.97562,-2.36266 0,-4.82755 -1.70384,0 z"
         inkscape:connector-curvature="0"
         style="fill:#000000" />
      <path
         id="path4647-6-0-0-0"
         d="m 201.40009,211.34066 c -5.64539,0 -10.22304,4.57765 -10.22304,10.22304 l -3.40768,0 4.41863,4.41863 0.0795,0.15903 4.58902,-4.57766 -3.40769,0 c 0,-4.3959 3.55535,-7.95125 7.95126,-7.95125 4.39591,0 7.95126,3.55535 7.95126,7.95125 0,4.39592 -3.55535,7.95127 -7.95126,7.95127 -2.19228,0 -4.18008,-0.89736 -5.61132,-2.33996 l -1.61296,1.61298 c 1.8515,1.8515 4.3959,2.99876 7.22428,2.99876 5.64539,0 10.22304,-4.57765 10.22304,-10.22305 0,-5.64539 -4.57765,-10.22304 -10.22304,-10.22304 z m -1.13589,5.67948 0,5.67946 4.86163,2.88517 0.81784,-1.37443 -3.97563,-2.36266 0,-4.82754 -1.70384,0 z"
         inkscape:connector-curvature="0"
         style="fill:#ffffff" />
    </g>
    <g
       id="g5993"
       transform="translate(0.45078559,-201.59563)">
      <path
         id="path4663-7-6-7"
         d="m 207.89228,573.64986 0,19.12336 2.04619,0 0,-19.12336 z m -4.09239,19.12336 2.0462,0 0,-19.12336 -2.0462,0 z m -3.06929,-19.12336 -12.27716,0 c -0.56271,0 -1.0231,0.4604 -1.0231,1.02309 l 0,17.07716 c 0,0.56271 0.46039,1.02311 1.0231,1.02311 l 12.27716,0 c 0.5627,0 1.02309,-0.4604 1.02309,-1.02311 l 0,-17.07716 c 0,-0.56269 -0.46039,-1.02309 -1.02309,-1.02309 z m -6.13858,7.61352 c 1.26864,0 2.30197,1.03332 2.30197,2.30196 0,1.26864 -1.03333,2.30197 -2.30197,2.30197 -1.26864,0 -2.30197,-1.03333 -2.30197,-2.30197 0,-1.26864 1.03333,-2.30196 2.30197,-2.30196 z m 4.60393,9.46364 -9.20787,0 0,-0.76732 c 0,-1.53465 3.06929,-2.30197 4.60394,-2.30197 1.53464,0 4.60393,0.76732 4.60393,2.30197 z"
         inkscape:connector-curvature="0"
         style="fill:#000000"
         sodipodi:nodetypes="ccccccccccssssssssssssssccsssc" />
      <path
         id="path4663-7-6-7-4"
         d="m 208.90414,574.15944 0,19.12336 2.04619,0 0,-19.12336 z m -4.09239,19.12336 2.0462,0 0,-19.12336 -2.0462,0 z m -3.06929,-19.12336 -12.27716,0 c -0.56271,0 -1.0231,0.4604 -1.0231,1.0231 l 0,17.07716 c 0,0.5627 0.46039,1.0231 1.0231,1.0231 l 12.27716,0 c 0.5627,0 1.02309,-0.4604 1.02309,-1.0231 l 0,-17.07716 c 0,-0.5627 -0.46039,-1.0231 -1.02309,-1.0231 z m -6.13858,7.61352 c 1.26864,0 2.30197,1.03333 2.30197,2.30197 0,1.26864 -1.03333,2.30197 -2.30197,2.30197 -1.26864,0 -2.30197,-1.03333 -2.30197,-2.30197 0,-1.26864 1.03333,-2.30197 2.30197,-2.30197 z m 4.60393,9.46364 -9.20786,0 0,-0.76732 c 0,-1.53465 3.06928,-2.30197 4.60393,-2.30197 1.53464,0 4.60393,0.76732 4.60393,2.30197 z"
         inkscape:connector-curvature="0"
         style="fill:#ffffff"
         sodipodi:nodetypes="ccccccccccssssssssssssssccsssc" />
    </g>
    <g
       id="g5957"
       transform="translate(0.45078559,-200.50705)">
      <path
         id="path4679-9-1-8"
         d="m 203.7817,261.2077 c 2.11538,0 3.81024,-1.70759 3.81024,-3.82297 0,-2.11538 -1.69485,-3.82298 -3.81024,-3.82298 -2.11538,0 -3.82298,1.7076 -3.82298,3.82298 0,2.11538 1.7076,3.82297 3.82298,3.82297 z m -10.1946,0 c 2.11539,0 3.81023,-1.70759 3.81023,-3.82297 0,-2.11538 -1.69484,-3.82298 -3.81023,-3.82298 -2.11538,0 -3.82298,1.7076 -3.82298,3.82298 0,2.11538 1.7076,3.82297 3.82298,3.82297 z m 0,2.54867 c -2.96918,0 -8.92029,1.49096 -8.92029,4.46014 l 0,3.18582 17.84056,0 0,-3.18582 c 0,-2.96918 -5.95109,-4.46014 -8.92027,-4.46014 z m 10.1946,0 c -0.36955,0 -0.79008,0.0254 -1.23609,0.0637 1.47822,1.07044 2.51042,2.51042 2.51042,4.39641 l 0,3.18584 7.64596,0 0,-3.18584 c 0,-2.96916 -5.95111,-4.46012 -8.92029,-4.46012 z"
         inkscape:connector-curvature="0"
         style="fill:#000000" />
      <path
         id="path4679-9-1-8-8"
         d="m 204.79356,261.71729 c 2.11539,0 3.81024,-1.70759 3.81024,-3.82298 0,-2.11537 -1.69485,-3.82297 -3.81024,-3.82297 -2.11537,0 -3.82297,1.7076 -3.82297,3.82297 0,2.11539 1.7076,3.82298 3.82297,3.82298 z m -10.1946,0 c 2.11539,0 3.81023,-1.70759 3.81023,-3.82298 0,-2.11537 -1.69484,-3.82297 -3.81023,-3.82297 -2.11538,0 -3.82298,1.7076 -3.82298,3.82297 0,2.11539 1.7076,3.82298 3.82298,3.82298 z m 0,2.54866 c -2.96918,0 -8.92029,1.49096 -8.92029,4.46014 l 0,3.18582 17.84056,0 0,-3.18582 c 0,-2.96918 -5.95109,-4.46014 -8.92027,-4.46014 z m 10.1946,0 c -0.36955,0 -0.79008,0.0254 -1.23609,0.0637 1.47822,1.07044 2.51042,2.51042 2.51042,4.39642 l 0,3.18583 7.64596,0 0,-3.18583 c 0,-2.96917 -5.9511,-4.46012 -8.92029,-4.46012 z"
         inkscape:connector-curvature="0"
         style="fill:#ffffff" />
    </g>
    <g
       id="g6003"
       transform="translate(0.88621547,-199.31248)">
      <path
         id="path4695-2-5-6"
         d="m 206.28827,662.9569 c 0.041,-0.32739 0.0716,-0.65477 0.0716,-1.00263 0,-0.34785 -0.0307,-0.67525 -0.0716,-1.00263 l 2.15873,-1.68811 c 0.19439,-0.15347 0.24555,-0.42971 0.12277,-0.65479 l -2.04619,-3.53991 c -0.12277,-0.22508 -0.39901,-0.30693 -0.62409,-0.22508 l -2.54751,1.0231 c -0.53201,-0.40924 -1.10494,-0.74687 -1.72903,-1.00264 l -0.38878,-2.7112 c -0.0307,-0.24555 -0.24554,-0.42971 -0.50132,-0.42971 l -4.09238,0 c -0.25578,0 -0.47063,0.18416 -0.50132,0.42971 l -0.38878,2.7112 c -0.62408,0.25577 -1.19702,0.60363 -1.72903,1.00264 l -2.54751,-1.0231 c -0.23531,-0.0921 -0.50132,0 -0.62409,0.22508 l -2.04619,3.53991 c -0.13301,0.22508 -0.0716,0.50132 0.12277,0.65479 l 2.15873,1.68811 c -0.041,0.32738 -0.0716,0.66501 -0.0716,1.00263 0,0.33763 0.0307,0.67524 0.0716,1.00263 l -2.15873,1.68812 c -0.19439,0.15346 -0.24555,0.4297 -0.12277,0.65478 l 2.04619,3.53991 c 0.12277,0.22508 0.39901,0.30693 0.62409,0.22508 l 2.54751,-1.02309 c 0.53201,0.40924 1.10494,0.74686 1.72903,1.00263 l 0.38878,2.71121 c 0.0307,0.24554 0.24554,0.4297 0.50132,0.4297 l 4.09238,0 c 0.25578,0 0.47063,-0.18416 0.50132,-0.4297 l 0.38878,-2.71121 c 0.62409,-0.25577 1.19702,-0.60363 1.72903,-1.00263 l 2.54751,1.02309 c 0.23532,0.0921 0.50132,0 0.62409,-0.22508 l 2.04619,-3.53991 c 0.12278,-0.22508 0.0716,-0.50132 -0.12277,-0.65478 l -2.15873,-1.68812 z m -7.60161,2.57821 c -1.97457,0 -3.58084,-1.60626 -3.58084,-3.58084 0,-1.97457 1.60627,-3.58084 3.58084,-3.58084 1.97458,0 3.58084,1.60627 3.58084,3.58084 0,1.97458 -1.60626,3.58084 -3.58084,3.58084 z"
         inkscape:connector-curvature="0"
         style="fill:#000000" />
      <path
         id="path4695-2-5-6-7"
         d="m 207.30013,663.46649 c 0.041,-0.32739 0.0716,-0.65478 0.0716,-1.00263 0,-0.34786 -0.0307,-0.67525 -0.0716,-1.00264 l 2.15874,-1.68811 c 0.19438,-0.15346 0.24554,-0.4297 0.12276,-0.65478 l -2.04619,-3.53991 c -0.12277,-0.22508 -0.39901,-0.30693 -0.62409,-0.22508 l -2.54751,1.02309 c -0.53201,-0.40924 -1.10494,-0.74686 -1.72903,-1.00264 l -0.38878,-2.7112 c -0.0307,-0.24554 -0.24554,-0.4297 -0.50132,-0.4297 l -4.09238,0 c -0.25578,0 -0.47062,0.18416 -0.50132,0.4297 l -0.38878,2.7112 c -0.62408,0.25578 -1.19702,0.60363 -1.72903,1.00264 l -2.54751,-1.02309 c -0.23531,-0.0921 -0.50132,0 -0.62409,0.22508 l -2.04619,3.53991 c -0.13301,0.22508 -0.0716,0.50132 0.12277,0.65478 l 2.15873,1.68811 c -0.041,0.32739 -0.0716,0.66501 -0.0716,1.00264 0,0.33762 0.0307,0.67524 0.0716,1.00263 l -2.15873,1.68811 c -0.19439,0.15346 -0.24555,0.4297 -0.12277,0.65478 l 2.04619,3.53992 c 0.12277,0.22508 0.39901,0.30692 0.62409,0.22508 l 2.54751,-1.0231 c 0.53201,0.40924 1.10495,0.74686 1.72903,1.00263 l 0.38878,2.71121 c 0.0307,0.24554 0.24554,0.4297 0.50132,0.4297 l 4.09238,0 c 0.25578,0 0.47063,-0.18416 0.50132,-0.4297 l 0.38878,-2.71121 c 0.62409,-0.25577 1.19702,-0.60362 1.72903,-1.00263 l 2.54751,1.0231 c 0.23532,0.0921 0.50132,0 0.62409,-0.22508 l 2.04619,-3.53992 c 0.12278,-0.22508 0.0716,-0.50132 -0.12276,-0.65478 l -2.15874,-1.68811 z m -7.60161,2.57821 c -1.97457,0 -3.58084,-1.60627 -3.58084,-3.58084 0,-1.97458 1.60627,-3.58084 3.58084,-3.58084 1.97458,0 3.58084,1.60626 3.58084,3.58084 0,1.97457 -1.60626,3.58084 -3.58084,3.58084 z"
         inkscape:connector-curvature="0"
         style="fill:#ffffff" />
    </g>
    <g
       id="g5997"
       transform="translate(0.45078559,-201.59563)">
      <path
         id="path4843-2-4-8"
         d="m 198.67418,612.75195 c -5.6475,0 -10.22074,4.58347 -10.22074,10.23097 0,5.64749 4.57324,10.23096 10.22074,10.23096 5.65772,0 10.2412,-4.58347 10.2412,-10.23096 0,-5.6475 -4.58348,-10.23097 -10.2412,-10.23097 z m 0.0102,18.41574 c -4.52209,0 -8.18478,-3.66269 -8.18478,-8.18477 0,-4.52209 3.66269,-8.18478 8.18478,-8.18478 4.52208,0 8.18477,3.66269 8.18477,8.18478 0,4.52208 -3.66269,8.18477 -8.18477,8.18477 z"
         inkscape:connector-curvature="0"
         style="fill:#000000" />
      <path
         id="path4847-8-7-4"
         d="m 199.19595,617.86744 -1.53464,0 0,6.13857 5.37126,3.22275 0.76732,-1.2584 -4.60394,-2.73167 z"
         inkscape:connector-curvature="0"
         style="fill:#000000" />
      <path
         id="path4843-2-4-8-7"
         d="m 199.68603,613.26153 c -5.64749,0 -10.22073,4.58347 -10.22073,10.23097 0,5.64749 4.57324,10.23096 10.22073,10.23096 5.65773,0 10.2412,-4.58347 10.2412,-10.23096 0,-5.6475 -4.58347,-10.23097 -10.2412,-10.23097 z m 0.0102,18.41574 c -4.52208,0 -8.18477,-3.66269 -8.18477,-8.18477 0,-4.52209 3.66269,-8.18478 8.18477,-8.18478 4.52209,0 8.18478,3.66269 8.18478,8.18478 0,4.52208 -3.66269,8.18477 -8.18478,8.18477 z"
         inkscape:connector-curvature="0"
         style="fill:#ffffff" />
      <path
         id="path4847-8-7-4-2"
         d="m 200.20781,618.37702 -1.53464,0 0,6.13857 5.37126,3.22275 0.76732,-1.2584 -4.60394,-2.73167 z"
         inkscape:connector-curvature="0"
         style="fill:#ffffff" />
    </g>
    <g
       id="g5971"
       transform="translate(0.45078559,-196.54762)">
      <path
         id="path4862-7-6-3"
         d="m 202.77679,373.41614 0,11.76562 c 0,2.26104 -1.83134,4.09238 -4.09239,4.09238 -2.26104,0 -4.09239,-1.83134 -4.09239,-4.09238 l 0,-12.78871 c 0,-1.41187 1.14587,-2.55774 2.55775,-2.55774 1.41187,0 2.55774,1.14587 2.55774,2.55774 l 0,10.74252 c 0,0.5627 -0.4604,1.02309 -1.0231,1.02309 -0.5627,0 -1.0231,-0.46039 -1.0231,-1.02309 l 0,-9.71943 -1.53464,0 0,9.71943 c 0,1.41187 1.14587,2.55773 2.55774,2.55773 1.41188,0 2.55774,-1.14586 2.55774,-2.55773 l 0,-10.74252 c 0,-2.26104 -1.83134,-4.09239 -4.09238,-4.09239 -2.26104,0 -4.09239,1.83135 -4.09239,4.09239 l 0,12.78871 c 0,3.11022 2.51683,5.62703 5.62703,5.62703 3.11021,0 5.62703,-2.51681 5.62703,-5.62703 l 0,-11.76562 -1.53464,0 z"
         inkscape:connector-curvature="0"
         style="fill:#000000" />
      <path
         id="path4862-7-6-3-7"
         d="m 203.78865,373.92573 0,11.76561 c 0,2.26104 -1.83134,4.09239 -4.09239,4.09239 -2.26104,0 -4.09239,-1.83135 -4.09239,-4.09239 l 0,-12.78871 c 0,-1.41187 1.14588,-2.55774 2.55775,-2.55774 1.41187,0 2.55774,1.14587 2.55774,2.55774 l 0,10.74252 c 0,0.5627 -0.4604,1.0231 -1.0231,1.0231 -0.5627,0 -1.0231,-0.4604 -1.0231,-1.0231 l 0,-9.71942 -1.53464,0 0,9.71942 c 0,1.41187 1.14587,2.55774 2.55774,2.55774 1.41188,0 2.55774,-1.14587 2.55774,-2.55774 l 0,-10.74252 c 0,-2.26104 -1.83134,-4.09238 -4.09238,-4.09238 -2.26104,0 -4.09239,1.83134 -4.09239,4.09238 l 0,12.78871 c 0,3.11022 2.51683,5.62703 5.62703,5.62703 3.11021,0 5.62703,-2.51681 5.62703,-5.62703 l 0,-11.76561 -1.53464,0 z"
         inkscape:connector-curvature="0"
         style="fill:#ffffff" />
    </g>
    <g
       id="g5948"
       transform="translate(0.45078559,-197.59563)">
      <g
         transform="translate(0,4)"
         id="g5944">
        <path
           style="fill:#000000"
           inkscape:connector-curvature="0"
           d="m 205.84609,167.49009 -14.33358,0 c -1.13564,0 -2.02574,0.91056 -2.02574,2.04619 l -0.0102,14.32335 c 0,1.12541 0.90033,2.0462 2.03597,2.0462 l 14.33358,0 c 1.1254,0 2.0462,-0.92079 2.0462,-2.0462 l 0,-14.32335 c 0,-1.13563 -0.92079,-2.04619 -2.0462,-2.04619 z m 0,12.27716 -4.09239,0 c 0,1.69834 -1.38118,3.06929 -3.06929,3.06929 -1.68811,0 -3.06929,-1.37095 -3.06929,-3.06929 l -4.10261,0 0,-10.23097 14.33358,0 0,10.23097 z"
           id="path5034-1-5-1" />
        <path
           style="fill:#ffffff"
           inkscape:connector-curvature="0"
           d="m 206.85795,167.99967 -14.33358,0 c -1.13564,0 -2.02574,0.91056 -2.02574,2.0462 l -0.0102,14.32335 c 0,1.1254 0.90033,2.0462 2.03597,2.0462 l 14.33359,0 c 1.1254,0 2.04619,-0.9208 2.04619,-2.0462 l 0,-14.32335 c 0,-1.13564 -0.92079,-2.0462 -2.04619,-2.0462 z m 0,12.27716 -4.09239,0 c 0,1.69834 -1.38117,3.06929 -3.06929,3.06929 -1.68811,0 -3.06928,-1.37095 -3.06928,-3.06929 l -4.10262,0 0,-10.23096 14.33358,0 0,10.23096 z"
           id="path5034-1-5-1-2" />
      </g>
    </g>
    <g
       id="g5989"
       transform="translate(0.45078559,-199.59563)">
      <path
         id="path5068-1-6-4"
         d="m 188.45344,535.70161 -2.0462,0 0,5.11549 0.0102,0 -0.0102,9.20787 c 0,1.1254 0.92079,2.04619 2.0462,2.04619 l 18.41574,0 0,-2.04619 -18.41574,0 0,-14.32336 z m 20.46193,-2.04619 -8.18477,0 -2.0462,-2.0462 -6.13858,0 c -1.1254,0 -2.03596,0.9208 -2.03596,2.0462 l -0.0102,12.27716 c 0,1.1254 0.92079,2.04619 2.04619,2.04619 l 16.36956,0 c 1.12541,0 2.0462,-0.92079 2.0462,-2.04619 l 0,-10.23097 c 0,-1.1254 -0.92079,-2.04619 -2.0462,-2.04619 z m -15.34644,11.25406 4.60392,-6.13858 3.58084,4.61416 2.55775,-3.07952 3.58084,4.60394 -14.32336,0 z"
         inkscape:connector-curvature="0"
         style="fill:#000000" />
      <path
         id="path5068-1-6-4-2"
         d="m 189.4653,536.21119 -2.04619,0 0,5.11549 0.0102,0 -0.0102,9.20787 c 0,1.1254 0.92078,2.04619 2.04619,2.04619 l 18.41574,0 0,-2.04619 -18.41574,0 0,-14.32336 z m 20.46193,-2.04619 -8.18477,0 -2.04619,-2.04619 -6.13859,0 c -1.1254,0 -2.03596,0.92079 -2.03596,2.04619 l -0.0102,12.27716 c 0,1.12541 0.92079,2.04619 2.04619,2.04619 l 16.36956,0 c 1.12541,0 2.0462,-0.92078 2.0462,-2.04619 l 0,-10.23097 c 0,-1.1254 -0.92079,-2.04619 -2.0462,-2.04619 z m -15.34644,11.25406 4.60392,-6.13857 3.58084,4.61416 2.55775,-3.07952 3.58084,4.60393 -14.32335,0 z"
         inkscape:connector-curvature="0"
         style="fill:#ffffff" />
    </g>
    <g
       id="g6123"
       transform="translate(1.3216454,-197.78847)">
      <g
         id="g5975">
        <path
           style="fill:#000000"
           inkscape:connector-curvature="0"
           d="m 206.86919,409.89517 -16.36955,0 c -1.1254,0 -2.03596,0.92079 -2.03596,2.04619 l -0.0102,18.41574 4.09238,-4.09239 14.32336,0 c 1.1254,0 2.04619,-0.92078 2.04619,-2.04619 l 0,-12.27716 c 0,-1.1254 -0.92079,-2.04619 -2.04619,-2.04619 z m -7.16168,12.27716 -2.04619,0 0,-2.04619 2.04619,0 0,2.04619 z m 0,-4.09239 -2.04619,0 0,-4.09239 2.04619,0 0,4.09239 z"
           id="path5100-7-9-9" />
        <path
           style="fill:#ffffff"
           inkscape:connector-curvature="0"
           d="m 207.88105,410.40475 -16.36955,0 c -1.1254,0 -2.03596,0.92079 -2.03596,2.04619 l -0.0102,18.41575 4.09238,-4.09239 14.32336,0 c 1.1254,0 2.04619,-0.92079 2.04619,-2.0462 l 0,-12.27716 c 0,-1.1254 -0.92079,-2.04619 -2.04619,-2.04619 z m -7.16168,12.27716 -2.04619,0 0,-2.04619 2.04619,0 0,2.04619 z m 0,-4.09238 -2.04619,0 0,-4.09239 2.04619,0 0,4.09239 z"
           id="path5100-7-9-9-6" />
      </g>
    </g>
    <g
       id="g6007"
       transform="translate(0.45078559,-201.59563)">
      <path
         id="path5182-5-3-2"
         d="m 198.6844,692.29465 c -5.64749,0 -10.23096,4.58347 -10.23096,10.23097 0,5.64749 4.58347,10.23096 10.23096,10.23096 5.6475,0 10.23097,-4.58347 10.23097,-10.23096 0,-5.6475 -4.58347,-10.23097 -10.23097,-10.23097 z m -2.04619,15.34645 -5.11549,-5.11548 1.44257,-1.44257 3.67292,3.66269 7.76531,-7.76531 1.44256,1.4528 -9.20787,9.20787 z"
         inkscape:connector-curvature="0"
         style="fill:#000000" />
      <path
         id="path5182-5-3-2-1"
         d="m 199.69627,692.80423 c -5.6475,0 -10.23097,4.58347 -10.23097,10.23097 0,5.6475 4.58347,10.23097 10.23097,10.23097 5.64749,0 10.23096,-4.58347 10.23096,-10.23097 0,-5.6475 -4.58347,-10.23097 -10.23096,-10.23097 z m -2.0462,15.34645 -5.11548,-5.11548 1.44256,-1.44257 3.67292,3.66269 7.76531,-7.76531 1.44257,1.4528 -9.20788,9.20787 z"
         inkscape:connector-curvature="0"
         style="fill:#ffffff" />
    </g>
    <g
       id="g5965"
       transform="translate(0.45078559,-199.59563)">
      <path
         id="path4503-7-5-4-6"
         d="m 190.26835,351.22027 16.85901,0 0,-3.3718 -16.85901,0 0,3.3718 z m 1.6859,-2.52885 1.6859,0 0,1.6859 -1.6859,0 0,-1.6859 z m -1.6859,-10.95836 0,3.37181 16.85901,0 0,-3.37181 -16.85901,0 z m 3.3718,2.52886 -1.6859,0 0,-1.68591 1.6859,0 0,1.68591 z m -3.3718,5.90065 16.85901,0 0,-3.3718 -16.85901,0 0,3.3718 z m 1.6859,-2.52885 1.6859,0 0,1.6859 -1.6859,0 0,-1.6859 z"
         inkscape:connector-curvature="0"
         style="fill:#000000" />
      <path
         sodipodi:nodetypes="cccccccccc"
         id="path4503-7-5-0-5-8"
         d="m 190.24145,336.11889 16.859,0 0,-3.3718 -16.859,0 z m 1.6859,-2.52885 1.6859,0 0,1.6859 -1.6859,0 z"
         inkscape:connector-curvature="0"
         style="fill:#000000" />
      <path
         id="path4503-7-5-4-6-6"
         d="m 191.28021,351.72986 16.85901,0 0,-3.3718 -16.85901,0 0,3.3718 z m 1.6859,-2.52885 1.6859,0 0,1.6859 -1.6859,0 0,-1.6859 z m -1.6859,-10.95836 0,3.37181 16.85901,0 0,-3.37181 -16.85901,0 z m 3.3718,2.52886 -1.6859,0 0,-1.68591 1.6859,0 0,1.68591 z m -3.3718,5.90065 16.85901,0 0,-3.3718 -16.85901,0 0,3.3718 z m 1.6859,-2.52885 1.6859,0 0,1.6859 -1.6859,0 0,-1.6859 z"
         inkscape:connector-curvature="0"
         style="fill:#ffffff" />
      <path
         sodipodi:nodetypes="cccccccccc"
         id="path4503-7-5-0-5-8-1"
         d="m 191.25331,336.62848 16.85901,0 0,-3.3718 -16.85901,0 z m 1.6859,-2.52885 1.6859,0 0,1.6859 -1.6859,0 z"
         inkscape:connector-curvature="0"
         style="fill:#ffffff" />
    </g>
    <g
       id="g5983"
       transform="translate(0.45078559,-196.72477)">
      <path
         id="path4503-7-5-6-5-2"
         d="m 188.46976,512.32001 20.46194,0 0,-4.09239 -20.46194,0 0,4.09239 z m 2.04619,-3.06929 2.04619,0 0,2.0462 -2.04619,0 0,-2.0462 z m -2.04619,-13.30026 0,4.09239 20.46194,0 0,-4.09239 -20.46194,0 z m 4.09238,3.0693 -2.04619,0 0,-2.0462 2.04619,0 0,2.0462 z m -4.09238,7.16167 20.46194,0 0,-4.09239 -20.46194,0 0,4.09239 z m 2.04619,-3.06929 2.04619,0 0,2.04619 -2.04619,0 0,-2.04619 z"
         inkscape:connector-curvature="0"
         style="fill:#000000" />
      <path
         sodipodi:nodetypes="cccccccccc"
         id="path4503-7-5-0-1-4-6"
         d="m 188.4371,493.99132 20.46194,0 0,-4.09238 -20.46194,0 z m 2.0462,-3.06928 2.04619,0 0,2.04619 -2.04619,0 z"
         inkscape:connector-curvature="0"
         style="fill:#000000" />
      <path
         id="path4503-7-5-6-5-2-9"
         d="m 189.48163,512.82959 20.46193,0 0,-4.09239 -20.46193,0 0,4.09239 z m 2.04619,-3.06929 2.04619,0 0,2.0462 -2.04619,0 0,-2.0462 z m -2.04619,-13.30026 0,4.09239 20.46193,0 0,-4.09239 -20.46193,0 z m 4.09238,3.0693 -2.04619,0 0,-2.0462 2.04619,0 0,2.0462 z m -4.09238,7.16167 20.46193,0 0,-4.09239 -20.46193,0 0,4.09239 z m 2.04619,-3.06929 2.04619,0 0,2.04619 -2.04619,0 0,-2.04619 z"
         inkscape:connector-curvature="0"
         style="fill:#ffffff" />
      <path
         sodipodi:nodetypes="cccccccccc"
         id="path4503-7-5-0-1-4-6-4"
         d="m 189.44897,494.5009 20.46194,0 0,-4.09238 -20.46194,0 z m 2.04619,-3.06928 2.04619,0 0,2.04619 -2.04619,0 z"
         inkscape:connector-curvature="0"
         style="fill:#ffffff" />
    </g>
    <path
       style="fill:#000000"
       inkscape:connector-curvature="0"
       d="m 158.18628,591.03856 0,-6.5104 4.34027,0 0,6.5104 5.42533,0 0,-8.68054 3.2552,0 -10.85067,-9.7656 -10.85067,9.7656 3.2552,0 0,8.68054 z"
       id="path4722" />
    <g
       id="g6019"
       transform="translate(0.45078559,-201.59563)">
      <path
         id="path4722-1"
         d="m 197.14324,791.83091 0,-6.5104 4.34027,0 0,6.5104 5.42533,0 0,-8.68054 3.2552,0 -10.85067,-9.7656 -10.85067,9.7656 3.2552,0 0,8.68054 z"
         inkscape:connector-curvature="0"
         style="fill:#000000" />
      <path
         id="path4722-2"
         d="m 197.82446,792.44216 0,-6.5104 4.34027,0 0,6.5104 5.42533,0 0,-8.68054 3.2552,0 -10.85067,-9.7656 -10.85067,9.7656 3.2552,0 0,8.68054 z"
         inkscape:connector-curvature="0"
         style="fill:#ffffff" />
    </g>
    <path
       style="fill:#ff6600"
       inkscape:connector-curvature="0"
       d="m 238.40806,591.03856 0,-6.5104 4.34027,0 0,6.5104 5.42533,0 0,-8.68054 3.2552,0 -10.85067,-9.7656 -10.85067,9.7656 3.2552,0 0,8.68054 z"
       id="path4722-7" />
    <path
       style="fill:#000000"
       inkscape:connector-curvature="0"
       d="m 158.83394,626.12652 1.45687,1.45687 5.16621,-5.16621 -5.16621,-5.16621 -1.45687,1.45687 2.66576,2.6761 -9.99145,0 0,2.06648 9.99145,0 -2.66576,2.6761 z m 9.20619,-13.00852 -14.4654,0 c -1.14689,0 -2.06648,0.92992 -2.06648,2.06648 l 0,4.13297 2.06648,0 0,-4.13297 14.4654,0 0,14.4654 -14.4654,0 0,-4.13297 -2.06648,0 0,4.13297 c 0,1.13656 0.91959,2.06648 2.06648,2.06648 l 14.4654,0 c 1.13656,0 2.06648,-0.92992 2.06648,-2.06648 l 0,-14.4654 c 0,-1.13656 -0.92992,-2.06648 -2.06648,-2.06648 z"
       id="path4913" />
    <g
       id="g6023"
       transform="translate(0.45078559,-201.59563)">
      <path
         id="path4913-0"
         d="m 198.10754,826.85042 1.45687,1.45687 5.16621,-5.16621 -5.16621,-5.16621 -1.45687,1.45687 2.66576,2.6761 -9.99145,0 0,2.06648 9.99145,0 -2.66576,2.6761 z m 9.20619,-13.00852 -14.4654,0 c -1.14689,0 -2.06648,0.92992 -2.06648,2.06648 l 0,4.13297 2.06648,0 0,-4.13297 14.4654,0 0,14.4654 -14.4654,0 0,-4.13297 -2.06648,0 0,4.13297 c 0,1.13656 0.91959,2.06648 2.06648,2.06648 l 14.4654,0 c 1.13656,0 2.06648,-0.92992 2.06648,-2.06648 l 0,-14.4654 c 0,-1.13656 -0.92992,-2.06648 -2.06648,-2.06648 z"
         inkscape:connector-curvature="0"
         style="fill:#000000" />
      <path
         id="path4913-9"
         d="m 198.97926,827.72214 1.45687,1.45687 5.16621,-5.16621 -5.16621,-5.16621 -1.45687,1.45687 2.66576,2.6761 -9.99145,0 0,2.06648 9.99145,0 -2.66576,2.6761 z m 9.20619,-13.00852 -14.4654,0 c -1.14689,0 -2.06648,0.92992 -2.06648,2.06648 l 0,4.13297 2.06648,0 0,-4.13297 14.4654,0 0,14.4654 -14.4654,0 0,-4.13297 -2.06648,0 0,4.13297 c 0,1.13656 0.91959,2.06648 2.06648,2.06648 l 14.4654,0 c 1.13656,0 2.06648,-0.92992 2.06648,-2.06648 l 0,-14.4654 c 0,-1.13656 -0.92992,-2.06648 -2.06648,-2.06648 z"
         inkscape:connector-curvature="0"
         style="fill:#ffffff" />
    </g>
    <path
       style="fill:#ff6600"
       inkscape:connector-curvature="0"
       d="m 238.89443,626.12652 1.45687,1.45687 5.16621,-5.16621 -5.16621,-5.16621 -1.45687,1.45687 2.66576,2.6761 -9.99145,0 0,2.06648 9.99145,0 -2.66576,2.6761 z m 9.20619,-13.00852 -14.4654,0 c -1.14689,0 -2.06648,0.92992 -2.06648,2.06648 l 0,4.13297 2.06648,0 0,-4.13297 14.4654,0 0,14.4654 -14.4654,0 0,-4.13297 -2.06648,0 0,4.13297 c 0,1.13656 0.91959,2.06648 2.06648,2.06648 l 14.4654,0 c 1.13656,0 2.06648,-0.92992 2.06648,-2.06648 l 0,-14.4654 c 0,-1.13656 -0.92992,-2.06648 -2.06648,-2.06648 z"
       id="path4913-3" />
    <path
       id="path4332"
       d="m 166.73285,668.01468 0,-3.25 -7,0 0,-4 7,0 0,-3.25 5.25,5.25 -5.25,5.25 m -4,-15.25 a 2,2 0 0 1 2,2 l 0,4 -2,0 0,-4 -9,0 0,16 9,0 0,-4 2,0 0,4 a 2,2 0 0 1 -2,2 l -9,0 a 2,2 0 0 1 -2,-2 l 0,-16 a 2,2 0 0 1 2,-2 l 9,0 z"
       inkscape:connector-curvature="0" />
    <g
       id="g6027"
       transform="translate(0.23307064,-202.42592)">
      <path
         inkscape:connector-curvature="0"
         d="m 205.40893,869.56694 0,-3.25 -7,0 0,-4 7,0 0,-3.25 5.25,5.25 -5.25,5.25 m -4,-15.25 a 2,2 0 0 1 2,2 l 0,4 -2,0 0,-4 -9,0 0,16 9,0 0,-4 2,0 0,4 a 2,2 0 0 1 -2,2 l -9,0 a 2,2 0 0 1 -2,-2 l 0,-16 a 2,2 0 0 1 2,-2 l 9,0 z"
         id="path4332-3" />
      <path
         style="fill:#ffffff"
         inkscape:connector-curvature="0"
         d="m 206.44968,870.44059 0,-3.25 -7,0 0,-4 7,0 0,-3.25 5.25,5.25 -5.25,5.25 m -4,-15.25 a 2,2 0 0 1 2,2 l 0,4 -2,0 0,-4 -9,0 0,16 9,0 0,-4 2,0 0,4 a 2,2 0 0 1 -2,2 l -9,0 a 2,2 0 0 1 -2,-2 l 0,-16 a 2,2 0 0 1 2,-2 l 9,0 z"
         id="path4332-6" />
    </g>
    <path
       id="path4332-7"
       d="m 246.6293,668.01468 0,-3.25 -7,0 0,-4 7,0 0,-3.25 5.25,5.25 -5.25,5.25 m -4,-15.25 a 2,2 0 0 1 2,2 l 0,4 -2,0 0,-4 -9,0 0,16 9,0 0,-4 2,0 0,4 a 2,2 0 0 1 -2,2 l -9,0 a 2,2 0 0 1 -2,-2 l 0,-16 a 2,2 0 0 1 2,-2 l 9,0 z"
       inkscape:connector-curvature="0"
       style="fill:#ff6600" />
    <path
       id="path6083"
       d="m 165.4809,694.17884 -12,0 0,4 12,0 m 1,5 a 1,1 0 0 1 -1,-1 1,1 0 0 1 1,-1 1,1 0 0 1 1,1 1,1 0 0 1 -1,1 m -3,7 -8,0 0,-5 8,0 m 3,-6 -14,0 a 3,3 0 0 0 -3,3 l 0,6 4,0 0,4 12,0 0,-4 4,0 0,-6 a 3,3 0 0 0 -3,-3 z"
       inkscape:connector-curvature="0" />
    <g
       id="g6119"
       transform="translate(-0.85550414,-201.41255)">
      <path
         inkscape:connector-curvature="0"
         d="m 206.0215,894.82079 -12,0 0,4 12,0 m 1,5 a 1,1 0 0 1 -1,-1 1,1 0 0 1 1,-1 1,1 0 0 1 1,1 1,1 0 0 1 -1,1 m -3,7 -8,0 0,-5 8,0 m 3,-6 -14,0 a 3,3 0 0 0 -3,3 l 0,6 4,0 0,4 12,0 0,-4 4,0 0,-6 a 3,3 0 0 0 -3,-3 z"
         id="path6083-5" />
      <path
         style="fill:#ffffff"
         inkscape:connector-curvature="0"
         d="m 206.94688,895.59138 -12,0 0,4 12,0 m 1,5 a 1,1 0 0 1 -1,-1 1,1 0 0 1 1,-1 1,1 0 0 1 1,1 1,1 0 0 1 -1,1 m -3,7 -8,0 0,-5 8,0 m 3,-6 -14,0 a 3,3 0 0 0 -3,3 l 0,6 4,0 0,4 12,0 0,-4 4,0 0,-6 a 3,3 0 0 0 -3,-3 z"
         id="path6083-3" />
    </g>
    <path
       id="path6083-56"
       d="m 245.42903,694.17884 -12,0 0,4 12,0 m 1,5 a 1,1 0 0 1 -1,-1 1,1 0 0 1 1,-1 1,1 0 0 1 1,1 1,1 0 0 1 -1,1 m -3,7 -8,0 0,-5 8,0 m 3,-6 -14,0 a 3,3 0 0 0 -3,3 l 0,6 4,0 0,4 12,0 0,-4 4,0 0,-6 a 3,3 0 0 0 -3,-3 z"
       inkscape:connector-curvature="0"
       style="fill:#ff6600" />
    <path
       id="path7308"
       d="m 165.13176,863.60035 -5.124,5.124 -5.12401,-5.124 3.07441,0 0,-4.0992 4.0992,0 0,4.0992 m 5.48268,-3.0436 c -0.69686,-3.5253 -3.80201,-6.1796 -7.53228,-6.1796 -2.96168,0 -5.53393,1.6807 -6.81493,4.13 -3.08465,0.3382 -5.48268,2.9412 -5.48268,6.118 a 6.1488048,6.1488048 0 0 0 6.1488,6.1488 l 13.32241,0 a 5.124004,5.124004 0 0 0 5.12401,-5.124 c 0,-2.7054 -2.10084,-4.8985 -4.76533,-5.0932 z"
       inkscape:connector-curvature="0" />
    <path
       id="path7319"
       d="m 162.05736,823.6146 0,4.09921 -4.0992,0 0,-4.09921 -3.07441,0 5.12401,-5.124 5.124,5.124 m 2.40828,-3.04365 c -0.69686,-3.52532 -3.80201,-6.17955 -7.53228,-6.17955 -2.96167,0 -5.53393,1.68067 -6.81493,4.12994 -3.08465,0.33819 -5.48268,2.94118 -5.48268,6.11807 a 6.1488048,6.1488048 0 0 0 6.1488,6.1488 l 13.32241,0 a 5.124004,5.124004 0 0 0 5.12401,-5.124 c 0,-2.70548 -2.10084,-4.89855 -4.76533,-5.09326 z"
       inkscape:connector-curvature="0" />
    <path
       id="path7341"
       d="m 153.85895,732.37026 8.19841,0 6.14881,6.14881 0,12.29761 a 2.0496016,2.0496016 0 0 1 -2.04961,2.0496 l -12.29761,0 a 2.0496016,2.0496016 0 0 1 -2.0496,-2.0496 l 0,-16.39681 a 2.0496016,2.0496016 0 0 1 2.0496,-2.04961 m 7.17361,1.5372 0,5.63641 5.6364,0 -5.6364,-5.63641 m -6.14881,9.73561 1.53721,7.17361 2.0496,0 1.5372,-3.0744 1.5372,3.0744 2.0496,0 1.5372,-7.17361 1.0248,0 0,-2.0496 -4.0992,0 0,2.0496 1.0248,0 -0.92232,4.30417 -1.12728,-2.25457 0,0 -2.0496,0 0,0 -1.12728,2.25457 -0.92232,-4.30417 1.0248,0 0,-2.0496 -4.09921,0 0,2.0496 1.0248,0 z"
       inkscape:connector-curvature="0" />
    <path
       id="path7411"
       d="m 161.03256,779.52963 5.6364,0 -5.6364,-5.6364 0,5.6364 m -7.17361,-7.17361 8.19841,0 6.14881,6.14881 0,12.29761 a 2.0496016,2.0496016 0 0 1 -2.04961,2.0496 l -12.29761,0 c -1.13752,0 -2.0496,-0.92232 -2.0496,-2.0496 l 0,-16.39681 a 2.0496016,2.0496016 0 0 1 2.0496,-2.04961 m 5.05227,10.69892 c 0.42017,0.92233 0.95307,1.68068 1.56795,2.20333 l 0.42017,0.32793 c -0.89158,0.16397 -2.12134,0.45092 -3.42284,0.95307 l 0,0 -0.11273,0.041 0.5124,-1.06579 c 0.46116,-0.89158 0.79935,-1.70117 1.03505,-2.45953 m 6.64071,3.9045 c 0.18447,-0.18447 0.2767,-0.42017 0.28695,-0.67637 0.0307,-0.20496 -0.0205,-0.39968 -0.12298,-0.56364 -0.29719,-0.48166 -1.06579,-0.70712 -2.33655,-0.70712 l -1.32199,0.0717 -0.89158,-0.59438 c -0.64562,-0.5329 -1.22976,-1.46547 -1.63968,-2.62349 l 0.041,-0.14348 c 0.33819,-1.36298 0.65588,-3.01291 -0.0205,-3.68928 -0.16397,-0.16397 -0.38943,-0.24595 -0.62513,-0.24595 l -0.24595,0 c -0.37918,0 -0.71736,0.39967 -0.80959,0.7891 -0.37918,1.36298 -0.15372,2.11108 0.22545,3.35109 l 0,0.0102 c -0.2562,0.90183 -0.58414,1.94712 -1.10678,3.00267 l -0.98381,1.84464 -0.91207,0.50215 c -1.22977,0.7686 -1.8139,1.62944 -1.92663,2.17258 -0.041,0.19471 -0.0205,0.36893 0.0512,0.55339 l 0.0307,0.0512 0.49191,0.31769 0.45091,0.11273 c 0.83009,0 1.77291,-0.97356 3.04366,-3.14614 l 0.18446,-0.0717 c 1.05555,-0.33818 2.36729,-0.57388 4.12995,-0.7686 1.05554,0.52265 2.29555,0.75836 3.0744,0.75836 0.45091,0 0.75836,-0.11273 0.93257,-0.30744 m -0.42017,-0.72761 0.0922,0.11273 c -0.0102,0.10248 -0.041,0.11272 -0.0922,0.13322 l -0.041,0 -0.19471,0.0205 c -0.47141,0 -1.19902,-0.19472 -1.94712,-0.52265 0.0922,-0.10248 0.13322,-0.10248 0.2357,-0.10248 1.43472,0 1.84464,0.2562 1.94712,0.35868 m -9.39742,1.49621 c -0.66612,1.21951 -1.27075,1.89588 -1.73191,2.0496 0.0512,-0.38943 0.5124,-1.06579 1.24001,-1.73192 l 0.4919,-0.31768 m 3.0949,-7.08138 c -0.23571,-0.92232 -0.24595,-1.67042 -0.0717,-2.10084 l 0.0717,-0.12297 0.15372,0.0512 c 0.17421,0.24595 0.19471,0.57388 0.0922,1.12728 l -0.0307,0.16396 -0.16397,0.84034 -0.0512,0.041 z"
       inkscape:connector-curvature="0" />
    <path
       style="fill:#ff6600"
       id="path7308-35"
       d="m 244.7068,863.46915 -5.124,5.124 -5.12401,-5.124 3.07441,0 0,-4.0992 4.0992,0 0,4.0992 m 5.48268,-3.0437 c -0.69686,-3.5253 -3.80201,-6.1795 -7.53228,-6.1795 -2.96168,0 -5.53393,1.6806 -6.81493,4.1299 -3.08465,0.3382 -5.48268,2.9412 -5.48268,6.1181 a 6.1488048,6.1488048 0 0 0 6.1488,6.1488 l 13.32241,0 a 5.124004,5.124004 0 0 0 5.12401,-5.124 c 0,-2.7055 -2.10084,-4.8986 -4.76533,-5.0933 z"
       inkscape:connector-curvature="0" />
    <path
       style="fill:#ff6600"
       id="path7319-62"
       d="m 241.6324,823.48332 0,4.0992 -4.0992,0 0,-4.0992 -3.07441,0 5.12401,-5.124 5.124,5.124 m 2.40828,-3.04366 c -0.69686,-3.52531 -3.80201,-6.17955 -7.53228,-6.17955 -2.96167,0 -5.53393,1.68068 -6.81493,4.12995 -3.08465,0.33819 -5.48268,2.94118 -5.48268,6.11806 a 6.1488048,6.1488048 0 0 0 6.1488,6.14881 l 13.32241,0 a 5.124004,5.124004 0 0 0 5.12401,-5.12401 c 0,-2.70547 -2.10084,-4.89855 -4.76533,-5.09326 z"
       inkscape:connector-curvature="0" />
    <path
       style="fill:#ff6600"
       id="path7341-9"
       d="m 233.43399,732.23898 8.19841,0 6.14881,6.1488 0,12.29761 a 2.0496016,2.0496016 0 0 1 -2.04961,2.04961 l -12.29761,0 a 2.0496016,2.0496016 0 0 1 -2.0496,-2.04961 l 0,-16.39681 a 2.0496016,2.0496016 0 0 1 2.0496,-2.0496 m 7.17361,1.5372 0,5.63641 5.6364,0 -5.6364,-5.63641 m -6.14881,9.73561 1.53721,7.1736 2.0496,0 1.5372,-3.0744 1.5372,3.0744 2.0496,0 1.5372,-7.1736 1.0248,0 0,-2.0496 -4.0992,0 0,2.0496 1.0248,0 -0.92232,4.30416 -1.12728,-2.25456 0,0 -2.0496,0 0,0 -1.12728,2.25456 -0.92232,-4.30416 1.0248,0 0,-2.0496 -4.09921,0 0,2.0496 1.0248,0 z"
       inkscape:connector-curvature="0" />
    <path
       style="fill:#ff6600"
       id="path7411-1"
       d="m 240.6076,779.39835 5.6364,0 -5.6364,-5.63641 0,5.63641 m -7.17361,-7.17361 8.19841,0 6.14881,6.14881 0,12.29761 a 2.0496016,2.0496016 0 0 1 -2.04961,2.0496 l -12.29761,0 c -1.13752,0 -2.0496,-0.92232 -2.0496,-2.0496 l 0,-16.39682 a 2.0496016,2.0496016 0 0 1 2.0496,-2.0496 m 5.05227,10.69892 c 0.42017,0.92232 0.95307,1.68067 1.56795,2.20332 l 0.42017,0.32794 c -0.89158,0.16397 -2.12134,0.45091 -3.42284,0.95306 l 0,0 -0.11273,0.041 0.5124,-1.0658 c 0.46116,-0.89157 0.79935,-1.70117 1.03505,-2.45952 m 6.64071,3.90449 c 0.18447,-0.18446 0.2767,-0.42017 0.28695,-0.67637 0.0307,-0.20496 -0.0205,-0.39967 -0.12298,-0.56364 -0.29719,-0.48165 -1.06579,-0.70711 -2.33655,-0.70711 l -1.32199,0.0717 -0.89158,-0.59439 c -0.64562,-0.53289 -1.22976,-1.46546 -1.63968,-2.62349 l 0.041,-0.14347 c 0.33819,-1.36298 0.65588,-3.01291 -0.0205,-3.68928 -0.16397,-0.16397 -0.38943,-0.24595 -0.62513,-0.24595 l -0.24595,0 c -0.37918,0 -0.71736,0.39967 -0.80959,0.78909 -0.37918,1.36299 -0.15372,2.11109 0.22545,3.3511 l 0,0.0103 c -0.2562,0.90182 -0.58414,1.94712 -1.10678,3.00266 l -0.98381,1.84465 -0.91208,0.50215 c -1.22976,0.7686 -1.81389,1.62943 -1.92662,2.17258 -0.041,0.19471 -0.0205,0.36892 0.0512,0.55339 l 0.0307,0.0512 0.49191,0.31769 0.45091,0.11273 c 0.83009,0 1.77291,-0.97357 3.04366,-3.14614 l 0.18446,-0.0717 c 1.05555,-0.33818 2.36729,-0.57389 4.12995,-0.7686 1.05554,0.52265 2.29555,0.75835 3.0744,0.75835 0.45091,0 0.75836,-0.11273 0.93257,-0.30744 m -0.42017,-0.72761 0.0922,0.11273 c -0.0102,0.10248 -0.041,0.11273 -0.0922,0.13323 l -0.041,0 -0.19471,0.0205 c -0.47141,0 -1.19902,-0.19471 -1.94712,-0.52265 0.0922,-0.10248 0.13322,-0.10248 0.2357,-0.10248 1.43472,0 1.84464,0.2562 1.94712,0.35868 m -9.39742,1.49621 c -0.66612,1.21952 -1.27075,1.89588 -1.73191,2.0496 0.0512,-0.38942 0.5124,-1.06579 1.24001,-1.73191 l 0.4919,-0.31769 m 3.0949,-7.08137 c -0.23571,-0.92232 -0.24595,-1.67043 -0.0717,-2.10084 l 0.0717,-0.12298 0.15372,0.0512 c 0.17421,0.24595 0.19471,0.57389 0.0922,1.12728 l -0.0307,0.16397 -0.16397,0.84034 -0.0512,0.041 z"
       inkscape:connector-curvature="0" />
    <g
       id="g7549"
       transform="translate(-0.42007423,-168.14865)">
      <path
         inkscape:connector-curvature="0"
         d="m 204.94502,1031.0972 -5.12401,5.124 -5.124,-5.124 3.0744,0 0,-4.0992 4.0992,0 0,4.0992 m 5.48269,-3.0436 c -0.69687,-3.5254 -3.80201,-6.1796 -7.53229,-6.1796 -2.96167,0 -5.53392,1.6807 -6.81492,4.13 -3.08465,0.3381 -5.48269,2.9411 -5.48269,6.118 a 6.1488048,6.1488048 0 0 0 6.14881,6.1488 l 13.32241,0 a 5.124004,5.124004 0 0 0 5.12401,-5.124 c 0,-2.7055 -2.10084,-4.8985 -4.76533,-5.0932 z"
         id="path7308-3" />
      <path
         inkscape:connector-curvature="0"
         d="m 205.89656,1031.6178 -5.12401,5.124 -5.124,-5.124 3.0744,0 0,-4.0992 4.09921,0 0,4.0992 m 5.48268,-3.0437 c -0.69686,-3.5253 -3.80201,-6.1795 -7.53229,-6.1795 -2.96167,0 -5.53392,1.6806 -6.81492,4.1299 -3.08465,0.3382 -5.48269,2.9412 -5.48269,6.1181 a 6.1488048,6.1488048 0 0 0 6.14881,6.1488 l 13.32241,0 a 5.124004,5.124004 0 0 0 5.12401,-5.124 c 0,-2.7055 -2.10084,-4.8986 -4.76533,-5.0933 z"
         id="path7308-3-7"
         style="fill:#ffffff" />
    </g>
    <g
       id="g7545"
       transform="translate(-0.42007423,-166.14865)">
      <path
         inkscape:connector-curvature="0"
         d="m 201.87061,989.11143 0,4.0992 -4.0992,0 0,-4.0992 -3.0744,0 5.124,-5.124 5.12401,5.124 m 2.40828,-3.04366 c -0.69687,-3.52531 -3.80201,-6.17955 -7.53229,-6.17955 -2.96166,0 -5.53392,1.68068 -6.81492,4.12995 -3.08465,0.33818 -5.48269,2.94118 -5.48269,6.11806 a 6.1488048,6.1488048 0 0 0 6.14881,6.14881 l 13.32241,0 a 5.124004,5.124004 0 0 0 5.12401,-5.12401 c 0,-2.70547 -2.10084,-4.89855 -4.76533,-5.09326 z"
         id="path7319-6" />
      <path
         inkscape:connector-curvature="0"
         d="m 202.82216,989.63198 0,4.0992 -4.09921,0 0,-4.0992 -3.0744,0 5.124,-5.124 5.12401,5.124 m 2.40828,-3.04366 c -0.69686,-3.52531 -3.80201,-6.17955 -7.53229,-6.17955 -2.96166,0 -5.53392,1.68068 -6.81492,4.12995 -3.08465,0.33819 -5.48269,2.94118 -5.48269,6.11806 a 6.1488048,6.1488048 0 0 0 6.14881,6.14881 l 13.32241,0 a 5.124004,5.124004 0 0 0 5.12401,-5.12401 c 0,-2.70547 -2.10084,-4.89854 -4.76533,-5.09326 z"
         id="path7319-6-0"
         style="fill:#ffffff" />
    </g>
    <g
       id="g7537"
       transform="translate(-0.42007423,-162.14865)">
      <path
         inkscape:connector-curvature="0"
         d="m 193.67221,893.86709 8.1984,0 6.14881,6.1488 0,12.29761 a 2.0496016,2.0496016 0 0 1 -2.0496,2.04961 l -12.29761,0 a 2.0496016,2.0496016 0 0 1 -2.0496,-2.04961 l 0,-16.39681 a 2.0496016,2.0496016 0 0 1 2.0496,-2.0496 m 7.1736,1.5372 0,5.63641 5.63641,0 -5.63641,-5.63641 m -6.1488,9.73561 1.5372,7.1736 2.0496,0 1.5372,-3.0744 1.5372,3.0744 2.0496,0 1.53721,-7.1736 1.0248,0 0,-2.0496 -4.09921,0 0,2.0496 1.0248,0 -0.92232,4.30416 -1.12728,-2.25456 0,0 -2.0496,0 0,0 -1.12728,2.25456 -0.92232,-4.30416 1.0248,0 0,-2.0496 -4.0992,0 0,2.0496 1.0248,0 z"
         id="path7341-7" />
      <path
         inkscape:connector-curvature="0"
         d="m 194.62375,894.38764 8.19841,0 6.1488,6.14881 0,12.2976 a 2.0496016,2.0496016 0 0 1 -2.0496,2.04961 l -12.29761,0 a 2.0496016,2.0496016 0 0 1 -2.0496,-2.04961 l 0,-16.39681 a 2.0496016,2.0496016 0 0 1 2.0496,-2.0496 m 7.17361,1.5372 0,5.63641 5.6364,0 -5.6364,-5.63641 m -6.14881,9.73561 1.5372,7.1736 2.0496,0 1.5372,-3.0744 1.53721,3.0744 2.0496,0 1.5372,-7.1736 1.0248,0 0,-2.0496 -4.0992,0 0,2.0496 1.0248,0 -0.92232,4.30416 -1.12728,-2.25456 0,0 -2.04961,0 0,0 -1.12728,2.25456 -0.92232,-4.30416 1.0248,0 0,-2.0496 -4.0992,0 0,2.0496 1.0248,0 z"
         id="path7341-7-9"
         style="fill:#ffffff" />
    </g>
    <g
       id="g7541"
       transform="translate(-0.42007423,-164.14865)">
      <path
         inkscape:connector-curvature="0"
         d="m 200.84581,943.02646 5.63641,0 -5.63641,-5.63641 0,5.63641 m -7.1736,-7.17361 8.1984,0 6.14881,6.14881 0,12.2976 a 2.0496016,2.0496016 0 0 1 -2.0496,2.04961 l -12.29761,0 c -1.13753,0 -2.0496,-0.92232 -2.0496,-2.04961 l 0,-16.39681 a 2.0496016,2.0496016 0 0 1 2.0496,-2.0496 m 5.05227,10.69892 c 0.42016,0.92232 0.95306,1.68067 1.56794,2.20332 l 0.42017,0.32794 c -0.89158,0.16397 -2.12134,0.45091 -3.42284,0.95306 l 0,0 -0.11272,0.041 0.5124,-1.0658 c 0.46116,-0.89157 0.79934,-1.70117 1.03505,-2.45952 m 6.6407,3.90449 c 0.18447,-0.18446 0.2767,-0.42017 0.28695,-0.67637 0.0307,-0.20496 -0.0205,-0.39967 -0.12298,-0.56364 -0.29719,-0.48165 -1.06579,-0.70711 -2.33654,-0.70711 l -1.322,0.0717 -0.89157,-0.59439 c -0.64563,-0.53289 -1.22976,-1.46546 -1.63968,-2.62349 l 0.041,-0.14347 c 0.33818,-1.36299 0.65587,-3.01291 -0.0205,-3.68928 -0.16397,-0.16397 -0.38942,-0.24596 -0.62513,-0.24596 l -0.24595,0 c -0.37918,0 -0.71736,0.39968 -0.80959,0.7891 -0.37918,1.36299 -0.15372,2.11109 0.22545,3.3511 l 0,0.0103 c -0.2562,0.90182 -0.58413,1.94712 -1.10678,3.00266 l -0.98381,1.84465 -0.91207,0.50215 c -1.22976,0.7686 -1.8139,1.62943 -1.92663,2.17258 -0.041,0.19471 -0.0205,0.36892 0.0512,0.55339 l 0.0308,0.0512 0.4919,0.31769 0.45091,0.11272 c 0.83009,0 1.77291,-0.97356 3.04366,-3.14613 l 0.18447,-0.0717 c 1.05554,-0.33818 2.36729,-0.57389 4.12994,-0.7686 1.05555,0.52265 2.29556,0.75835 3.07441,0.75835 0.45091,0 0.75835,-0.11273 0.93256,-0.30744 m -0.42016,-0.72761 0.0922,0.11273 c -0.0103,0.10248 -0.041,0.11273 -0.0922,0.13323 l -0.041,0 -0.19471,0.0205 c -0.47141,0 -1.19902,-0.19471 -1.94712,-0.52265 0.0922,-0.10248 0.13322,-0.10248 0.2357,-0.10248 1.43473,0 1.84465,0.2562 1.94713,0.35868 m -9.39743,1.49621 c -0.66612,1.21952 -1.27075,1.89588 -1.73191,2.0496 0.0512,-0.38942 0.5124,-1.06579 1.24001,-1.73191 l 0.4919,-0.31769 m 3.0949,-7.08137 c -0.2357,-0.92232 -0.24595,-1.67043 -0.0717,-2.10084 l 0.0717,-0.12298 0.15372,0.0512 c 0.17422,0.24595 0.19471,0.57389 0.0922,1.12728 l -0.0307,0.16397 -0.16397,0.84034 -0.0512,0.041 z"
         id="path7411-5" />
      <path
         inkscape:connector-curvature="0"
         d="m 201.79736,943.54701 5.6364,0 -5.6364,-5.63641 0,5.63641 m -7.17361,-7.17361 8.19841,0 6.1488,6.14881 0,12.29761 a 2.0496016,2.0496016 0 0 1 -2.0496,2.0496 l -12.29761,0 c -1.13753,0 -2.0496,-0.92232 -2.0496,-2.0496 l 0,-16.39682 a 2.0496016,2.0496016 0 0 1 2.0496,-2.0496 m 5.05227,10.69892 c 0.42017,0.92232 0.95306,1.68068 1.56794,2.20332 l 0.42017,0.32794 c -0.89158,0.16397 -2.12134,0.45091 -3.42283,0.95306 l 0,0 -0.11273,0.041 0.5124,-1.0658 c 0.46116,-0.89157 0.79934,-1.70117 1.03505,-2.45952 m 6.64071,3.90449 c 0.18446,-0.18446 0.27669,-0.42017 0.28694,-0.67637 0.0307,-0.20496 -0.0205,-0.39967 -0.12298,-0.56364 -0.29719,-0.48165 -1.06579,-0.70711 -2.33654,-0.70711 l -1.32199,0.0717 -0.89158,-0.59439 c -0.64563,-0.53289 -1.22976,-1.46546 -1.63968,-2.62349 l 0.041,-0.14347 c 0.33818,-1.36298 0.65587,-3.01291 -0.0205,-3.68928 -0.16396,-0.16397 -0.38942,-0.24595 -0.62512,-0.24595 l -0.24596,0 c -0.37917,0 -0.71736,0.39967 -0.80959,0.78909 -0.37918,1.36299 -0.15372,2.11109 0.22546,3.3511 l 0,0.0103 c -0.2562,0.90182 -0.58414,1.94712 -1.10679,3.00267 l -0.98381,1.84464 -0.91207,0.50215 c -1.22976,0.7686 -1.8139,1.62943 -1.92663,2.17258 -0.041,0.19471 -0.0205,0.36893 0.0512,0.55339 l 0.0308,0.0512 0.4919,0.31769 0.45092,0.11273 c 0.83008,0 1.7729,-0.97357 3.04365,-3.14614 l 0.18447,-0.0717 c 1.05554,-0.33818 2.36729,-0.57389 4.12995,-0.7686 1.05554,0.52265 2.29555,0.75835 3.0744,0.75835 0.45091,0 0.75835,-0.11273 0.93257,-0.30744 m -0.42017,-0.72761 0.0922,0.11273 c -0.0102,0.10248 -0.041,0.11273 -0.0922,0.13323 l -0.041,0 -0.19472,0.0205 c -0.4714,0 -1.19901,-0.19471 -1.94712,-0.52265 0.0922,-0.10248 0.13323,-0.10248 0.23571,-0.10248 1.43472,0 1.84464,0.2562 1.94712,0.35868 m -9.39743,1.49621 c -0.66612,1.21952 -1.27075,1.89588 -1.73191,2.04961 0.0512,-0.38943 0.5124,-1.0658 1.24001,-1.73192 l 0.4919,-0.31769 m 3.0949,-7.08137 c -0.2357,-0.92232 -0.24595,-1.67043 -0.0717,-2.10084 l 0.0717,-0.12298 0.15372,0.0512 c 0.17422,0.24595 0.19472,0.57389 0.0922,1.12728 l -0.0308,0.16397 -0.16397,0.84034 -0.0512,0.041 z"
         id="path7411-5-3"
         style="fill:#ffffff" />
    </g>
  </g>
</svg>
